<svg width="104" height="48" viewBox="0 0 104 48" fill="none" xmlns="http://www.w3.org/2000/svg">
<g clip-path="url(#clip0_140_732)">
<path d="M0 22V48.2626H24.6889V45.3189H2.95668V24.9437H24.6889V22H0Z" fill="white"/>
<path d="M42.4834 33.7206L46.6391 27.3042H50.0727L45.1403 34.928V35.3349L50.3451 42.9451H46.7753L42.4834 36.5422V33.7206Z" fill="white"/>
<path d="M60.1964 36.5422H64.1477L62.3764 28.7829H61.9676L60.1964 36.5422ZM64.8153 39.4859H59.5287L58.7384 42.9451H55.6455L59.3924 27.3042H64.9516L68.6986 42.9451H65.6056L64.8153 39.4859Z" fill="white"/>
<path d="M76.5469 27.3042H79.5035V40.137H86.6429V42.9451H76.5469V27.3042Z" fill="white"/>
<path d="M27.1414 32.093C27.1414 31.469 26.8962 30.9263 26.4056 30.4652C25.9152 30.0039 25.2339 29.7733 24.3482 29.7733C23.5988 29.7733 23.013 29.9225 22.577 30.2345C22.141 30.5465 21.923 30.9535 21.923 31.469C21.923 31.7403 21.9774 31.9845 22.0864 32.2015C22.1954 32.4186 22.3726 32.6085 22.6314 32.7848C22.8903 32.9612 23.231 33.1104 23.667 33.2461C24.0894 33.3817 24.6344 33.5038 25.2884 33.6259C26.937 33.9244 28.1906 34.4262 29.0626 35.1181C29.9346 35.8235 30.3706 36.8545 30.3706 38.2245V38.4959C30.3706 39.2284 30.2344 39.8795 29.9754 40.4764C29.7166 41.0597 29.3351 41.5617 28.8446 41.9822C28.354 42.4027 27.7546 42.7147 27.046 42.9453C26.3375 43.1624 25.5472 43.2844 24.6616 43.2844C23.6261 43.2844 22.7268 43.1353 21.9366 42.8504C21.1463 42.5655 20.4923 42.1585 19.9745 41.643C19.4568 41.1275 19.048 40.5307 18.7891 39.8388C18.5166 39.147 18.3804 38.3874 18.3804 37.5734V37.4378H21.337C21.337 38.3738 21.6096 39.1199 22.1546 39.6896C22.6996 40.2458 23.5444 40.5307 24.7025 40.5307C25.6018 40.5307 26.2694 40.3408 26.7054 39.9474C27.1414 39.5539 27.3594 39.0928 27.3594 38.5637C27.3594 38.3059 27.3186 38.0754 27.2232 37.8312C27.1278 37.6005 26.9779 37.3971 26.7463 37.2072C26.5283 37.0172 26.2149 36.8545 25.8198 36.7052C25.4246 36.556 24.9341 36.4339 24.3346 36.3254C23.5444 36.1898 22.8222 36.0134 22.1546 35.7964C21.5006 35.5793 20.9283 35.2944 20.4378 34.9417C19.9473 34.589 19.5794 34.1414 19.3069 33.5988C19.0344 33.0561 18.8981 32.405 18.8981 31.6318V31.4961C18.8981 30.8585 19.0344 30.2616 19.2932 29.7191C19.5522 29.1764 19.92 28.7016 20.3969 28.2947C20.8738 27.8877 21.4324 27.5757 22.1 27.3587C22.7677 27.1416 23.5034 27.0195 24.3346 27.0195C25.2611 27.0195 26.0786 27.1552 26.8008 27.4129C27.5229 27.6707 28.1224 28.0234 28.6129 28.471C29.1034 28.9187 29.4304 29.4478 29.7166 30.0175C30.0708 30.7094 30.0844 32.1201 30.0844 32.1201L27.1414 32.093Z" fill="white"/>
<path d="M93.5374 27.3042V42.9451H103.729V40.137H96.5074V30.1258H103.729V27.3042H93.5374Z" fill="white"/>
<path d="M40.3715 27.3042H37.4148V42.9451H40.3715V27.3042Z" fill="white"/>
<path d="M101.467 33.7205H98.6333V36.5421H101.467V33.7205Z" fill="white"/>
</g>
<defs>
<clipPath id="clip0_140_732">
<rect width="104" height="48" fill="white"/>
</clipPath>
</defs>
</svg>
