<svg width="20" height="16" viewBox="0 0 20 16" fill="none" xmlns="http://www.w3.org/2000/svg">
<path d="M16.3913 2.18233C16.3862 2.17244 16.3778 2.16468 16.3675 2.16046C15.1761 1.61385 13.9189 1.22408 12.6273 1.0009C12.6156 0.998713 12.6034 1.00029 12.5926 1.00539C12.5818 1.0105 12.5729 1.01888 12.5672 1.02933C12.396 1.34005 12.2406 1.6592 12.1016 1.98558C10.7093 1.77423 9.29305 1.77423 7.90075 1.98558C7.76081 1.65838 7.60291 1.33914 7.42778 1.02933C7.42178 1.0191 7.41283 1.01092 7.40211 1.00585C7.39138 1.00077 7.37938 0.999049 7.36766 1.0009C6.0759 1.22361 4.8186 1.61341 3.62741 2.16049C3.61721 2.16481 3.60861 2.17219 3.60278 2.18161C1.22063 5.73905 0.568064 9.20902 0.888189 12.636C0.88909 12.6444 0.89167 12.6526 0.895777 12.6599C0.899884 12.6673 0.905433 12.6738 0.912095 12.679C2.2992 13.706 3.8507 14.49 5.50038 14.9974C5.512 15.0009 5.5244 15.0007 5.53593 14.9969C5.54745 14.9932 5.55754 14.986 5.56485 14.9763C5.91916 14.4942 6.23311 13.9837 6.5035 13.45C6.50722 13.4426 6.50934 13.4346 6.50973 13.4264C6.51011 13.4182 6.50876 13.41 6.50575 13.4024C6.50274 13.3947 6.49815 13.3878 6.49227 13.3821C6.4864 13.3763 6.47937 13.3719 6.47166 13.3691C5.97658 13.1797 5.49729 12.9513 5.03828 12.6862C5.02995 12.6813 5.02294 12.6744 5.01789 12.6661C5.01284 12.6579 5.0099 12.6485 5.00933 12.6389C5.00876 12.6292 5.01058 12.6196 5.01462 12.6108C5.01866 12.602 5.0248 12.5943 5.0325 12.5885C5.12909 12.5163 5.224 12.442 5.31716 12.3655C5.32533 12.3587 5.33522 12.3544 5.34571 12.353C5.3562 12.3516 5.36687 12.3531 5.37653 12.3575C8.38369 13.7299 11.6393 13.7299 14.6109 12.3575C14.6206 12.3529 14.6314 12.3511 14.642 12.3524C14.6527 12.3537 14.6627 12.358 14.671 12.3647C14.7643 12.4417 14.8595 12.5163 14.9564 12.5885C14.9642 12.5943 14.9704 12.6019 14.9745 12.6106C14.9786 12.6194 14.9804 12.629 14.9799 12.6387C14.9794 12.6483 14.9766 12.6577 14.9716 12.666C14.9666 12.6743 14.9596 12.6812 14.9513 12.6862C14.4934 12.9535 14.0137 13.1817 13.5173 13.3684C13.5096 13.3713 13.5026 13.3758 13.4967 13.3817C13.4909 13.3875 13.4864 13.3945 13.4834 13.4022C13.4805 13.4099 13.4792 13.4181 13.4796 13.4263C13.4801 13.4346 13.4823 13.4426 13.486 13.45C13.761 13.9807 14.0744 14.4906 14.424 14.9754C14.4311 14.9854 14.4411 14.9928 14.4527 14.9968C14.4642 15.0007 14.4768 15.0009 14.4884 14.9973C16.1411 14.4916 17.6953 13.7076 19.0841 12.679C19.0909 12.6741 19.0965 12.6677 19.1006 12.6604C19.1048 12.6532 19.1073 12.6451 19.108 12.6367C19.4913 8.67477 18.4664 5.23324 16.3913 2.18233V2.18233ZM6.9526 10.5493C6.04722 10.5493 5.30122 9.71849 5.30122 8.69811C5.30122 7.67774 6.03275 6.84683 6.9526 6.84683C7.87963 6.84683 8.61841 7.68496 8.60394 8.69805C8.60394 9.71849 7.87238 10.5493 6.9526 10.5493V10.5493ZM13.0582 10.5493C12.1529 10.5493 11.4069 9.71849 11.4069 8.69811C11.4069 7.67774 12.1384 6.84683 13.0582 6.84683C13.9853 6.84683 14.7241 7.68496 14.7096 8.69805C14.7096 9.71849 13.9853 10.5493 13.0582 10.5493Z" fill="white"/>
</svg>
