<svg width="18" height="18" viewBox="0 0 18 18" fill="none" xmlns="http://www.w3.org/2000/svg">
<path fill-rule="evenodd" clip-rule="evenodd" d="M8.99942 0.222473C4.02989 0.222473 0 4.25186 0 9.22299C0 13.199 2.57852 16.5723 6.1552 17.7625C6.60521 17.8451 6.76947 17.5672 6.76947 17.3287C6.76947 17.115 6.76168 16.549 6.75732 15.798C4.25382 16.3419 3.72558 14.5915 3.72558 14.5915C3.31634 13.5518 2.72632 13.275 2.72632 13.275C1.90917 12.7166 2.78815 12.7279 2.78815 12.7279C3.69132 12.7916 4.16669 13.6554 4.16669 13.6554C4.96953 15.0308 6.27311 14.6336 6.78594 14.4032C6.86771 13.8216 7.1002 13.425 7.35734 13.2001C5.35883 12.9729 3.25783 12.2008 3.25783 8.75198C3.25783 7.76947 3.60851 6.96608 4.18421 6.33694C4.09167 6.10926 3.78282 5.19421 4.27244 3.95511C4.27244 3.95511 5.0281 3.71312 6.74737 4.87774C7.46524 4.67812 8.23515 4.57828 9.00053 4.5748C9.7648 4.57828 10.5348 4.67812 11.2537 4.87774C12.9719 3.71312 13.7262 3.95511 13.7262 3.95511C14.2172 5.19421 13.9083 6.10926 13.8157 6.33694C14.3926 6.96608 14.7409 7.76947 14.7409 8.75198C14.7409 12.2094 12.6366 12.9702 10.6316 13.193C10.9548 13.4709 11.2426 14.0202 11.2426 14.8597C11.2426 16.0629 11.2316 17.0336 11.2316 17.3287C11.2316 17.5693 11.3937 17.8494 11.8504 17.7615C15.4236 16.569 18 13.1979 18 9.22299C18 4.25186 13.9701 0.222473 8.99942 0.222473Z" fill="white"/>
</svg>
