<svg width="18" height="19" viewBox="0 0 18 19" fill="none" xmlns="http://www.w3.org/2000/svg">
<path fill-rule="evenodd" clip-rule="evenodd" d="M12.7045 2.30127C13.7102 2.30127 14.6777 2.69877 15.3895 3.41202C16.102 4.12377 16.5002 5.08377 16.5002 6.08877V12.0138C16.5002 14.1063 14.7977 15.8013 12.7045 15.8013H5.29524C3.20199 15.8013 1.50024 14.1063 1.50024 12.0138V6.08877C1.50024 3.99627 3.19449 2.30127 5.29524 2.30127H12.7045ZM13.8977 7.20627L13.9577 7.14627C14.137 6.92877 14.137 6.61377 13.9495 6.39627C13.8452 6.28452 13.702 6.21627 13.5527 6.20127C13.3952 6.19302 13.2452 6.24627 13.132 6.35127L9.75024 9.05127C9.31524 9.41202 8.69199 9.41202 8.25024 9.05127L4.87524 6.35127C4.64199 6.17877 4.31949 6.20127 4.12524 6.40377C3.92274 6.60627 3.90024 6.92877 4.07199 7.15377L4.17024 7.25127L7.58274 9.91377C8.00274 10.2438 8.51199 10.4238 9.04524 10.4238C9.57699 10.4238 10.0952 10.2438 10.5145 9.91377L13.8977 7.20627Z" fill="white"/>
</svg>
