<svg width="80" height="80" viewBox="0 0 80 80" fill="none" xmlns="http://www.w3.org/2000/svg">
<path d="M23.3333 36.9999V19.9999C23.3333 10.6666 30.6666 3.33325 40 3.33325C49.3333 3.33325 56.6666 10.6666 56.6666 19.9999V36.9999" stroke="white" stroke-width="4" stroke-miterlimit="10" stroke-linecap="round"/>
<path d="M40 76.6667C52.8867 76.6667 63.3334 66.22 63.3334 53.3333C63.3334 40.4467 52.8867 30 40 30C27.1134 30 16.6667 40.4467 16.6667 53.3333C16.6667 66.22 27.1134 76.6667 40 76.6667Z" stroke="white" stroke-width="4" stroke-miterlimit="10" stroke-linecap="round"/>
<path d="M40 56.6666C43.6819 56.6666 46.6666 53.6818 46.6666 49.9999C46.6666 46.318 43.6819 43.3333 40 43.3333C36.3181 43.3333 33.3333 46.318 33.3333 49.9999C33.3333 53.6818 36.3181 56.6666 40 56.6666Z" stroke="white" stroke-width="4" stroke-miterlimit="10" stroke-linecap="round"/>
<path d="M40 56.6667V63.3334" stroke="white" stroke-width="4" stroke-miterlimit="10" stroke-linecap="round"/>
</svg>
