<svg width="80" height="80" viewBox="0 0 80 80" fill="none" xmlns="http://www.w3.org/2000/svg">
<path d="M38.2065 26.1915C38.94 24.7049 41.0599 24.7049 41.7935 26.1915L44.6847 32.0506C44.976 32.6409 45.5391 33.0501 46.1906 33.1448L52.6564 34.0842C54.2968 34.3226 54.9518 36.3385 53.7648 37.4956L49.0862 42.0563C48.6148 42.5158 48.3998 43.1777 48.511 43.8265L49.6151 50.2657C49.8952 51.8996 48.1802 53.1454 46.7129 52.3738L40.9309 49.3331C40.3481 49.0266 39.6518 49.0266 39.0691 49.3331L33.287 52.3738C31.8198 53.1454 30.1047 51.8996 30.3849 50.2657L31.489 43.8265C31.6002 43.1777 31.3851 42.5158 30.9138 42.0563L26.2351 37.4956C25.0481 36.3385 25.7032 34.3226 27.3436 34.0842L33.8094 33.1448C34.4608 33.0501 35.024 32.6409 35.3153 32.0506L38.2065 26.1915Z" stroke="white" stroke-width="4" stroke-miterlimit="10" stroke-linecap="square"/>
<path d="M40 76.6666C60.2505 76.6666 76.6667 60.2504 76.6667 39.9999C76.6667 19.7495 60.2505 3.33325 40 3.33325C19.7496 3.33325 3.33334 19.7495 3.33334 39.9999C3.33334 60.2504 19.7496 76.6666 40 76.6666Z" stroke="white" stroke-width="4" stroke-miterlimit="10"/>
<path d="M41.3334 63.3333C41.3334 64.0697 40.7364 64.6667 40 64.6667C39.2636 64.6667 38.6667 64.0697 38.6667 63.3333C38.6667 62.597 39.2636 62 40 62C40.7364 62 41.3334 62.597 41.3334 63.3333Z" fill="white" stroke="white" stroke-width="4"/>
<path d="M63.5233 47.2103C63.5233 47.9467 62.9263 48.5436 62.19 48.5436C61.4536 48.5436 60.8566 47.9467 60.8566 47.2103C60.8566 46.4739 61.4536 45.877 62.19 45.877C62.9263 45.877 63.5233 46.4739 63.5233 47.2103Z" fill="white" stroke="white" stroke-width="4"/>
<path d="M55.0467 21.1231C55.0467 21.8595 54.4498 22.4565 53.7134 22.4565C52.977 22.4565 52.3801 21.8595 52.3801 21.1231C52.3801 20.3867 52.977 19.7898 53.7134 19.7898C54.4498 19.7898 55.0467 20.3867 55.0467 21.1231Z" fill="white" stroke="white" stroke-width="4"/>
<path d="M27.62 21.1231C27.62 21.8595 27.023 22.4565 26.2866 22.4565C25.5503 22.4565 24.9533 21.8595 24.9533 21.1231C24.9533 20.3867 25.5503 19.7898 26.2866 19.7898C27.023 19.7898 27.62 20.3867 27.62 21.1231Z" fill="white" stroke="white" stroke-width="4"/>
<path d="M19.1434 47.2103C19.1434 47.9467 18.5465 48.5436 17.8101 48.5436C17.0737 48.5436 16.4767 47.9467 16.4767 47.2103C16.4767 46.4739 17.0737 45.877 17.8101 45.877C18.5465 45.877 19.1434 46.4739 19.1434 47.2103Z" fill="white" stroke="white" stroke-width="4"/>
</svg>
