<svg width="84" height="11" viewBox="0 0 84 11" fill="none" xmlns="http://www.w3.org/2000/svg">
<path d="M4.61928 10.141C6.69128 10.141 8.21728 8.85298 8.21728 7.11698C8.21728 3.37898 3.03728 4.56898 3.03728 2.94498C3.03728 2.37098 3.52728 2.02098 4.31128 2.02098C5.20728 2.02098 5.75328 2.58098 5.76728 3.32298H7.90928C7.90928 1.60098 6.80328 0.060976 4.38128 0.060976C2.44928 0.060976 1.00728 1.27898 1.00728 2.95898C1.00728 6.54298 6.15928 5.38098 6.15928 7.11698C6.15928 7.76098 5.52928 8.18098 4.61928 8.18098C3.63928 8.18098 2.95328 7.62098 2.95328 6.75298H0.909281C0.909281 8.71298 2.47728 10.141 4.61928 10.141ZM15.2415 10.001H17.9575L13.6735 4.82098L17.6075 0.200976H14.9895L11.5035 4.34498V0.200976H9.43145V10.001H11.5035V5.32498L15.2415 10.001ZM23.6013 0.200976H21.9073L18.0293 10.001H20.2273L20.8573 8.36298H24.6373L25.2533 10.001H27.5073L23.6013 0.200976ZM21.5573 6.55698L22.7613 3.44898L23.9373 6.55698H21.5573ZM28.3397 0.200976V10.001H34.9057V8.01298H30.4117V0.200976H28.3397ZM35.9959 0.200976V10.001H42.0019V8.01298H38.0679V5.94098H41.5679V3.95298H38.0679V2.18898H42.0019V0.200976H35.9959ZM51.4623 10.141C53.6603 10.141 55.4803 8.74098 55.9003 6.69698H54.7243C54.3743 8.13898 53.0443 9.11898 51.4623 9.11898C49.3343 9.11898 47.6823 7.35498 47.6823 5.07298C47.6823 2.81898 49.3343 1.08298 51.4623 1.08298C53.0023 1.08298 54.3323 2.02098 54.7103 3.37898H55.8723C55.4943 1.43298 53.6183 0.060976 51.4623 0.060976C48.7183 0.060976 46.5903 2.24498 46.5903 5.07298C46.5903 7.92898 48.7183 10.141 51.4623 10.141ZM57.562 0.200976V10.001H58.584V6.17898C58.584 4.87698 59.424 4.02298 60.698 4.02298C61.944 4.02298 62.756 4.87698 62.756 6.17898V10.001H63.778V6.08098C63.778 4.21898 62.658 3.05698 60.908 3.05698C59.844 3.05698 59.018 3.60298 58.584 4.52698V0.200976H57.562ZM72.4998 3.19698H71.4778V4.76498C70.9878 3.68698 70.0078 3.05698 68.7058 3.05698C66.8298 3.05698 65.3318 4.61098 65.3318 6.58498C65.3318 8.55898 66.8298 10.141 68.7058 10.141C70.0078 10.141 70.9878 9.49698 71.4778 8.41898V10.001H72.4998V3.19698ZM66.3398 6.58498C66.3398 5.15698 67.4598 4.00898 68.9018 4.00898C70.3858 4.00898 71.4778 5.10098 71.4778 6.58498C71.4778 8.08298 70.3858 9.17498 68.9018 9.17498C67.4598 9.17498 66.3398 8.04098 66.3398 6.58498ZM74.4605 3.19698V10.001H75.4825V3.19698H74.4605ZM74.2505 0.970976C74.2505 1.36298 74.5725 1.69898 74.9785 1.69898C75.3845 1.69898 75.7205 1.36298 75.7205 0.970976C75.7205 0.564976 75.3845 0.228976 74.9785 0.228976C74.5725 0.228976 74.2505 0.564976 74.2505 0.970976ZM78.4629 3.19698H77.4409V10.001H78.4629V6.17898C78.4629 4.87698 79.3029 4.02298 80.5769 4.02298C81.8229 4.02298 82.6349 4.87698 82.6349 6.17898V10.001H83.6569V6.08098C83.6569 4.21898 82.5369 3.05698 80.7869 3.05698C79.7229 3.05698 78.8969 3.60298 78.4629 4.52698V3.19698Z" fill="white"/>
</svg>
