<svg width="48" height="48" viewBox="0 0 48 48" fill="none" xmlns="http://www.w3.org/2000/svg">
<path d="M24 40.9423C33.5443 40.9423 41.28 33.2047 41.28 23.6623C41.28 14.118 33.5443 6.38232 24 6.38232C14.4556 6.38232 6.71997 14.118 6.71997 23.6623C6.71997 33.2047 14.4556 40.9423 24 40.9423Z" stroke="black" stroke-width="1.92" stroke-linecap="round" stroke-linejoin="round"/>
<path fill-rule="evenodd" clip-rule="evenodd" d="M31.9295 23.6606C31.9295 28.0382 28.3814 31.5864 24.0038 31.5864C19.6262 31.5864 16.0762 28.0382 16.0762 23.6606C16.0762 19.283 19.6262 15.7349 24.0038 15.7349C28.3814 15.7349 31.9295 19.283 31.9295 23.6606Z" stroke="black" stroke-width="1.92" stroke-linecap="round" stroke-linejoin="round"/>
<path d="M18.4026 29.2573L11.7825 35.8775" stroke="black" stroke-width="1.92" stroke-linecap="round" stroke-linejoin="round"/>
<path d="M29.6062 29.2651L36.2225 35.8815" stroke="black" stroke-width="1.92" stroke-linecap="round" stroke-linejoin="round"/>
<path d="M11.7825 11.4448L18.4007 18.063" stroke="black" stroke-width="1.92" stroke-linecap="round" stroke-linejoin="round"/>
<path d="M29.6062 18.0592L36.2206 11.4448" stroke="black" stroke-width="1.92" stroke-linecap="round" stroke-linejoin="round"/>
</svg>
