<svg width="48" height="48" viewBox="0 0 48 48" fill="none" xmlns="http://www.w3.org/2000/svg">
<path fill-rule="evenodd" clip-rule="evenodd" d="M36.8164 16.7717C36.8164 18.202 37.9762 19.3637 39.4084 19.3637C40.8386 19.3637 42.0004 18.202 42.0004 16.7717C42.0004 15.3414 40.8386 14.1797 39.4084 14.1797C37.9762 14.1797 36.8164 15.3414 36.8164 16.7717Z" stroke="black" stroke-width="2" stroke-linecap="round" stroke-linejoin="round"/>
<path fill-rule="evenodd" clip-rule="evenodd" d="M25.8711 9.49827C25.8711 10.9305 27.0309 12.0903 28.4633 12.0903C29.8935 12.0903 31.0553 10.9305 31.0553 9.49827C31.0553 8.06799 29.8935 6.90625 28.4633 6.90625C27.0309 6.90625 25.8711 8.06799 25.8711 9.49827Z" stroke="black" stroke-width="2" stroke-linecap="round" stroke-linejoin="round"/>
<path fill-rule="evenodd" clip-rule="evenodd" d="M18.8676 11.9904C18.8676 13.4207 17.7078 14.5825 16.2756 14.5825C14.8453 14.5825 13.6836 13.4207 13.6836 11.9904C13.6836 10.5602 14.8453 9.39844 16.2756 9.39844C17.7078 9.39844 18.8676 10.5602 18.8676 11.9904Z" stroke="black" stroke-width="2" stroke-linecap="round" stroke-linejoin="round"/>
<path fill-rule="evenodd" clip-rule="evenodd" d="M11.184 19.3264C11.184 20.7566 10.0242 21.9184 8.592 21.9184C7.16174 21.9184 6 20.7566 6 19.3264C6 17.8942 7.16174 16.7344 8.592 16.7344C10.0242 16.7344 11.184 17.8942 11.184 19.3264Z" stroke="black" stroke-width="2" stroke-linecap="round" stroke-linejoin="round"/>
<path d="M20.402 20.8796V17.2076L17.6602 14.1797" stroke="black" stroke-width="2" stroke-linecap="round" stroke-linejoin="round"/>
<path d="M28.4648 12.0898L28.4649 19.7376" stroke="black" stroke-width="2" stroke-linecap="round" stroke-linejoin="round"/>
<path d="M34.6094 22.664L38.0264 18.9609" stroke="black" stroke-width="2" stroke-linecap="round" stroke-linejoin="round"/>
<path d="M22.4656 33.4922C23.816 33.2938 25.1918 33.4942 26.556 33.4612C29.72 33.3852 32.1992 30.7116 34.6084 28.8978C35.8382 27.9716 37.5622 28.0942 38.65 29.1858C39.8586 30.3982 39.8586 32.3636 38.65 33.576C36.0484 36.1894 33.7502 38.612 30.226 39.982C25.332 41.8852 20.792 40.9628 15.8377 39.982C13.9209 39.6026 10.2995 39.5812 8.35938 39.5812" stroke="black" stroke-width="2" stroke-linecap="round" stroke-linejoin="round"/>
<path d="M22.4636 33.4323H25.1354C27.0424 33.4323 28.5818 32.0605 28.5818 30.1535C28.5818 28.5695 27.5094 27.3027 25.9742 26.9153C23.7732 26.3647 21.5782 25.9307 19.282 25.9851C15.6431 26.0747 11.2433 28.1023 8.35938 30.0327" stroke="black" stroke-width="2" stroke-linecap="round" stroke-linejoin="round"/>
</svg>
