<svg width="48" height="48" viewBox="0 0 48 48" fill="none" xmlns="http://www.w3.org/2000/svg">
<path d="M35.1836 32.2692C35.1836 32.2692 14.6495 28.0446 12.1119 27.4102C9.57236 26.7758 6.39844 23.448 6.39844 19.1591C6.39844 14.8701 9.57236 11.5405 12.1119 10.9061C14.6495 10.2717 35.0844 6.06836 35.0844 6.06836" stroke="black" stroke-width="2" stroke-linecap="round" stroke-linejoin="round"/>
<path d="M12.6484 27.5273V37.2475C12.6484 39.8727 14.7774 41.9997 17.4025 41.9997C20.0258 41.9997 22.1546 39.8727 22.1546 37.2475V29.6757" stroke="black" stroke-width="2" stroke-linecap="round" stroke-linejoin="round"/>
<path fill-rule="evenodd" clip-rule="evenodd" d="M41.6012 19.155C41.6012 26.4194 38.9546 32.31 35.6912 32.31C32.4278 32.31 29.7812 26.4194 29.7812 19.155C29.7812 11.8905 32.4278 6 35.6912 6C38.9546 6 41.6012 11.8905 41.6012 19.155Z" stroke="black" stroke-width="2" stroke-linecap="round" stroke-linejoin="round"/>
</svg>
