<svg width="80" height="80" viewBox="0 0 80 80" fill="none" xmlns="http://www.w3.org/2000/svg">
<g filter="url(#filter0_d_3_10)">
<rect x="15" y="14" width="50" height="50" rx="25" fill="white"/>
<rect x="15.5" y="14.5" width="49" height="49" rx="24.5" stroke="url(#paint0_linear_3_10)"/>
</g>
<g clip-path="url(#clip0_3_10)">
<path d="M30.3567 25.9292C30.3567 25.9292 37.7755 20.8903 45.9712 23.515C47.7755 24.0927 49.46 25.0177 50.6157 26.38C51.4647 27.3801 51.9814 28.565 52.1818 29.7942C52.3222 30.6589 52.3174 31.5445 52.172 32.4092C52.095 32.8686 51.957 33.3428 51.7395 33.7764C51.582 34.0904 51.2106 34.8738 50.7281 34.8418C50.5558 34.8307 50.4544 34.7309 50.3689 34.6102C50.2773 34.4784 50.2089 34.2986 50.0427 34.5068C49.9878 34.5757 49.9572 34.657 49.9035 34.726C49.73 34.9489 49.3122 34.9797 49.0972 34.7851C49.019 34.7137 48.9519 34.6139 48.8395 34.6078C48.7063 34.6004 48.6245 34.7297 48.5793 34.8393C48.44 35.1756 48.3215 35.5229 48.1114 35.8296C47.9013 36.1363 47.5788 36.406 47.1781 36.4812C46.7774 36.5563 46.3047 36.3876 46.1666 36.0501C46.075 35.8259 46.1397 35.5771 46.2289 35.3517C46.3132 35.1399 46.4561 34.896 46.4439 34.6656C46.4329 34.471 46.2595 34.2937 46.0408 34.4439C45.9553 34.5031 45.904 34.5893 45.8551 34.6743C45.6523 35.0228 45.4569 35.3726 45.2345 35.7101C44.8277 36.3272 43.7234 38.0491 42.6533 37.3384C42.3381 37.1291 42.2001 36.762 42.2245 36.4171C42.2489 36.0723 42.4151 35.7471 42.6166 35.4502C42.817 35.1522 43.054 34.8738 43.2409 34.5696C43.3007 34.471 43.3569 34.3688 43.3691 34.2579C43.3814 34.1471 43.3447 34.0264 43.2458 33.9562C43.148 33.886 43.0051 33.8786 42.8854 33.9143C42.7657 33.9513 42.668 34.0276 42.5861 34.1114C42.3907 34.3134 42.2807 34.5659 42.1659 34.8098C42.0523 35.0549 41.9252 35.3037 41.7078 35.4872C41.1837 35.9318 40.4275 35.6424 40.2565 35.0647C40.0782 34.4649 40.4593 33.7332 40.5399 33.126C40.6267 32.4695 40.6328 31.8032 40.5607 31.1454C40.4165 29.83 39.9609 28.5478 39.2255 27.4639C37.8035 25.3749 35.1869 24.9918 32.8927 25.301C32.0132 25.4205 31.2094 25.7087 30.3567 25.9292Z" fill="#6781A5"/>
<path d="M44.7472 38.9704C44.8132 39.0259 44.895 39.0628 44.9854 39.069C45.099 39.0764 45.2102 39.032 45.3018 38.9729C45.6781 38.729 45.8687 38.2006 45.8784 37.7905C45.8821 37.6205 45.8283 37.3852 45.6011 37.3631C45.4875 37.352 45.3776 37.3939 45.2798 37.4456C44.8254 37.687 44.2244 38.5319 44.7472 38.9704Z" fill="#6781A5"/>
<path d="M48.6048 37.3569C48.6696 37.3495 48.7429 37.3261 48.8162 37.2805C48.9078 37.2239 48.986 37.145 49.0458 37.0662C49.2889 36.7472 49.3207 36.3839 49.2352 36.1757C49.1997 36.0895 49.1032 36.0008 48.9175 36.1079C48.8247 36.1621 48.7465 36.241 48.6818 36.3173C48.3764 36.677 48.0905 37.4136 48.6048 37.3569Z" fill="#6781A5"/>
<path d="M45.0269 40.5261C38.109 42.9525 34.686 39.6392 34.686 39.6392C34.686 39.6392 37.0559 40.8525 39.0435 40.8525C35.612 39.7107 33.0845 36.576 34.5199 32.5163C35.2651 30.4101 36.9936 29.6821 38.5646 29.2178C37.6912 26.8788 34.9719 26.003 32.6448 26.2395C30.5192 26.4551 28.5683 27.518 27.3003 29.2301C25.8429 31.1996 25.485 33.7234 25.8966 36.0882C26.0579 37.0157 26.2924 38.0356 26.7151 38.8854C27.4517 40.3659 28.5316 41.6752 29.9768 42.5264C29.9768 42.5264 29.3403 41.9413 29.2389 41.3759C33.1615 43.8024 37.7364 43.9687 37.7364 43.9687C34.2744 42.9747 31.4989 41.4474 30.7097 39.6392C37.3284 45.7756 44.0826 42.4217 45.3628 41.9228C47.7596 43.3738 54.1058 42.732 54.1058 42.732C54.1058 42.732 47.8048 42.4056 45.0269 40.5261Z" fill="#6781A5"/>
<path d="M53.0907 44.1436C52.7853 44.1522 52.4603 44.1584 52.1195 44.1584C50.2736 44.1584 48.8151 44.0057 47.6594 43.6904L46.3658 43.3369L46.4513 44.6277C46.5356 45.8939 45.6975 47.2426 44.3171 48.0654C41.9839 49.4547 38.9519 49.5052 36.5087 48.3758C35.2749 47.8042 34.3037 46.9544 33.3912 45.9592C32.5177 45.0058 31.3926 43.8492 30.0183 43.7914C29.0789 43.7507 28.1236 44.1141 27.4505 44.7767C26.5356 45.6759 26.1923 47.0172 26.4146 48.2674C26.6333 49.4954 27.7217 50.6051 28.6233 51.4156C28.8774 51.6435 29.1412 51.8603 29.4124 52.0647C30.7733 53.0895 32.3088 53.815 33.9042 54.3705C37.8659 55.7512 42.2856 55.8805 46.2546 54.4481C47.1146 54.1377 47.9502 53.7522 48.7369 53.2841C51.9546 51.3663 53.9494 48.3043 54.0716 45.092L54.1082 44.1165L53.0907 44.1436Z" fill="#6781A5"/>
</g>
<defs>
<filter id="filter0_d_3_10" x="0" y="0" width="80" height="80" filterUnits="userSpaceOnUse" color-interpolation-filters="sRGB">
<feFlood flood-opacity="0" result="BackgroundImageFix"/>
<feColorMatrix in="SourceAlpha" type="matrix" values="0 0 0 0 0 0 0 0 0 0 0 0 0 0 0 0 0 0 127 0" result="hardAlpha"/>
<feOffset dy="1"/>
<feGaussianBlur stdDeviation="7.5"/>
<feComposite in2="hardAlpha" operator="out"/>
<feColorMatrix type="matrix" values="0 0 0 0 1 0 0 0 0 1 0 0 0 0 1 0 0 0 0.35 0"/>
<feBlend mode="normal" in2="BackgroundImageFix" result="effect1_dropShadow_3_10"/>
<feBlend mode="normal" in="SourceGraphic" in2="effect1_dropShadow_3_10" result="shape"/>
</filter>
<linearGradient id="paint0_linear_3_10" x1="22.4605" y1="14" x2="57.5395" y2="64" gradientUnits="userSpaceOnUse">
<stop stop-color="#686868"/>
<stop offset="1" stop-color="white"/>
</linearGradient>
<clipPath id="clip0_3_10">
<rect width="30" height="34" fill="white" transform="translate(25 22)"/>
</clipPath>
</defs>
</svg>
