<?xml version="1.0" encoding="UTF-8"?>
<svg id="Layer_1" data-name="Layer 1" xmlns="http://www.w3.org/2000/svg" xmlns:xlink="http://www.w3.org/1999/xlink" version="1.1" viewBox="0 0 28.4 32.7">
  <defs>
    <style>
      .cls-1 {
        mask: url(#mask);
      }

      .cls-2 {
        fill: #6781a5;
      }

      .cls-2, .cls-3 {
        stroke-width: 0px;
      }

      .cls-3 {
        fill: #fff;
      }
    </style>
    <mask id="mask" x="-.7" y="-.8" width="30" height="34" maskUnits="userSpaceOnUse">
      <g id="mask0_10_45" data-name="mask0 10 45">
        <path class="cls-3" d="M29.3-.8H-.7v34h30V-.8Z"/>
      </g>
    </mask>
  </defs>
  <g class="cls-1">
    <g>
      <path class="cls-2" d="M4.6,3.2S12-1.9,20.2.8c1.8.6,3.5,1.5,4.6,2.9.8,1,1.4,2.2,1.6,3.4.1.9.1,1.8,0,2.6,0,.5-.2.9-.4,1.4-.2.3-.5,1.1-1,1.1-.2,0-.3-.1-.4-.2,0-.1-.2-.3-.3-.1,0,0,0,.2-.1.2-.2.2-.6.3-.8,0,0,0-.1-.2-.3-.2-.1,0-.2.1-.3.2-.1.3-.3.7-.5,1-.2.3-.5.6-.9.7-.4,0-.9,0-1-.4,0-.2,0-.5,0-.7,0-.2.2-.5.2-.7,0-.2-.2-.4-.4-.2,0,0-.1.1-.2.2-.2.3-.4.7-.6,1-.4.6-1.5,2.3-2.6,1.6-.3-.2-.5-.6-.4-.9,0-.3.2-.7.4-1,.2-.3.4-.6.6-.9,0,0,.1-.2.1-.3,0-.1,0-.2-.1-.3,0,0-.2,0-.4,0-.1,0-.2.1-.3.2-.2.2-.3.5-.4.7-.1.2-.2.5-.5.7-.5.4-1.3.2-1.5-.4-.2-.6.2-1.3.3-1.9,0-.7,0-1.3,0-2-.1-1.3-.6-2.6-1.3-3.7-1.4-2.1-4-2.5-6.3-2.2-.9.1-1.7.4-2.5.6Z"/>
      <path class="cls-2" d="M19,16.2c0,0,.1,0,.2,0,.1,0,.2,0,.3,0,.4-.2.6-.8.6-1.2,0-.2,0-.4-.3-.4-.1,0-.2,0-.3,0-.5.2-1.1,1.1-.5,1.5Z"/>
      <path class="cls-2" d="M22.9,14.6c0,0,.1,0,.2,0,0,0,.2-.1.2-.2.2-.3.3-.7.2-.9,0,0-.1-.2-.3,0,0,0-.2.1-.2.2-.3.4-.6,1.1,0,1Z"/>
      <path class="cls-2" d="M19.3,17.8c-6.9,2.4-10.3-.9-10.3-.9,0,0,2.4,1.2,4.4,1.2-3.4-1.1-6-4.3-4.5-8.3.7-2.1,2.5-2.8,4-3.3-.9-2.3-3.6-3.2-5.9-3-2.1.2-4.1,1.3-5.3,3C.1,8.4-.3,11,.2,13.3c.2.9.4,1.9.8,2.8.7,1.5,1.8,2.8,3.3,3.6,0,0-.6-.6-.7-1.2,3.9,2.4,8.5,2.6,8.5,2.6-3.5-1-6.2-2.5-7-4.3,6.6,6.1,13.4,2.8,14.7,2.3,2.4,1.5,8.7.8,8.7.8,0,0-6.3-.3-9.1-2.2Z"/>
      <path class="cls-2" d="M27.4,21.4c-.3,0-.6,0-1,0-1.8,0-3.3-.2-4.5-.5l-1.3-.4v1.3c.2,1.3-.7,2.6-2,3.4-2.3,1.4-5.4,1.4-7.8.3-1.2-.6-2.2-1.4-3.1-2.4-.9-1-2-2.1-3.4-2.2-.9,0-1.9.3-2.6,1-.9.9-1.3,2.2-1,3.5.2,1.2,1.3,2.3,2.2,3.1.3.2.5.4.8.6,1.4,1,2.9,1.8,4.5,2.3,4,1.4,8.4,1.5,12.4,0,.9-.3,1.7-.7,2.5-1.2,3.2-1.9,5.2-5,5.3-8.2v-1s-1,0-1,0Z"/>
    </g>
  </g>
</svg>