<svg width="32" height="33" viewBox="0 0 32 33" fill="none" xmlns="http://www.w3.org/2000/svg">
<circle cx="16" cy="16.3999" r="16" fill="white"/>
<g clip-path="url(#clip0_2161_29916)">
<path d="M11.2676 10.1656C11.2676 10.1656 14.9155 7.6702 18.9578 8.9913C19.8451 9.28487 20.6831 9.72524 21.2254 10.4103C21.6197 10.8996 21.9155 11.4867 22.0141 12.0739C22.0634 12.5142 22.0634 12.9546 22.0141 13.346C22.0141 13.5907 21.9155 13.7864 21.8169 14.0311C21.7183 14.1778 21.5704 14.5693 21.324 14.5693C21.2254 14.5693 21.1761 14.5203 21.1268 14.4714C21.1268 14.4225 21.0282 14.3246 20.9789 14.4225C20.9789 14.4225 20.9789 14.5203 20.9296 14.5203C20.831 14.6182 20.6338 14.6671 20.5352 14.5203C20.5352 14.5203 20.4859 14.4225 20.3873 14.4225C20.338 14.4225 20.2887 14.4714 20.2394 14.5203C20.1902 14.6671 20.0916 14.8629 19.993 15.0096C19.8944 15.1564 19.7465 15.3032 19.5493 15.3522C19.3521 15.3522 19.1056 15.3522 19.0564 15.1564C19.0564 15.0586 19.0564 14.9118 19.0564 14.8139C19.0564 14.7161 19.1549 14.5693 19.1549 14.4714C19.1549 14.3736 19.0564 14.2757 18.9578 14.3736C18.9578 14.3736 18.9085 14.4225 18.8592 14.4714C18.7606 14.6182 18.662 14.8139 18.5634 14.9607C18.3662 15.2543 17.824 16.0861 17.2817 15.7436C17.1338 15.6457 17.0352 15.45 17.0845 15.3032C17.0845 15.1564 17.1831 14.9607 17.2817 14.8139C17.3803 14.6671 17.4789 14.5203 17.5775 14.3736C17.5775 14.3736 17.6268 14.2757 17.6268 14.2268C17.6268 14.1778 17.6268 14.1289 17.5775 14.08C17.5775 14.08 17.4789 14.08 17.3803 14.08C17.331 14.08 17.2817 14.1289 17.2324 14.1778C17.1338 14.2757 17.0845 14.4225 17.0352 14.5203C16.9859 14.6182 16.9366 14.765 16.7887 14.8629C16.5423 15.0586 16.1479 14.9607 16.0493 14.6671C15.9507 14.3736 16.1479 14.0311 16.1972 13.7375C16.1972 13.395 16.1972 13.1014 16.1972 12.7589C16.1479 12.1228 15.9014 11.4867 15.5564 10.9485C14.8662 9.92096 13.5845 9.72524 12.4507 9.87203C12.0071 9.92096 11.6127 10.0677 11.2183 10.1656H11.2676Z" fill="black"/>
<path d="M18.3662 16.5265C18.3662 16.5265 18.4155 16.5265 18.4648 16.5265C18.5141 16.5265 18.5634 16.5265 18.6127 16.5265C18.8099 16.4287 18.9085 16.1351 18.9085 15.9394C18.9085 15.8415 18.9085 15.7437 18.7606 15.7437C18.7113 15.7437 18.662 15.7437 18.6127 15.7437C18.3662 15.8415 18.0704 16.2819 18.3662 16.4776V16.5265Z" fill="black"/>
<path d="M20.2887 15.7438C20.2887 15.7438 20.338 15.7438 20.3873 15.7438C20.3873 15.7438 20.4859 15.6949 20.4859 15.646C20.5845 15.4992 20.6338 15.3035 20.5845 15.2056C20.5845 15.2056 20.5352 15.1077 20.4366 15.2056C20.4366 15.2056 20.338 15.2545 20.338 15.3035C20.1901 15.4992 20.0422 15.8417 20.338 15.7928L20.2887 15.7438Z" fill="black"/>
<path d="M18.5141 17.3095C15.1127 18.4838 13.4366 16.8691 13.4366 16.8691C13.4366 16.8691 14.6197 17.4563 15.6056 17.4563C13.9296 16.9181 12.6479 15.3523 13.3873 13.3951C13.7324 12.3676 14.6197 12.0251 15.3591 11.7804C14.9155 10.6551 13.5845 10.2147 12.4507 10.3126C11.4155 10.4104 10.4296 10.9486 9.83801 11.7804C9.04928 12.7101 8.85209 13.9823 9.09857 15.1077C9.19716 15.548 9.29575 16.0373 9.49294 16.4777C9.83801 17.2116 10.3803 17.8477 11.1197 18.2392C11.1197 18.2392 10.8239 17.9456 10.7746 17.652C12.6972 18.8263 14.9648 18.9242 14.9648 18.9242C13.2394 18.4349 11.9084 17.7009 11.5141 16.8202C14.7676 19.8049 18.1197 18.1902 18.7605 17.9456C19.9436 18.6795 23.0493 18.337 23.0493 18.337C23.0493 18.337 19.9436 18.1902 18.5634 17.2606L18.5141 17.3095Z" fill="black"/>
<path d="M22.507 19.0712C22.3591 19.0712 22.2113 19.0712 22.0141 19.0712C21.1268 19.0712 20.3873 18.9734 19.7958 18.8266L19.1549 18.6309V19.2669C19.2535 19.903 18.8099 20.5391 18.169 20.9306C17.0352 21.6156 15.507 21.6156 14.3239 21.0773C13.7324 20.7838 13.2394 20.3923 12.7958 19.903C12.3521 19.4137 11.8099 18.8755 11.1197 18.8266C10.676 18.8266 10.1831 18.9734 9.83802 19.3159C9.39436 19.7562 9.19717 20.3923 9.34506 21.0284C9.44365 21.6156 9.98591 22.1538 10.4296 22.5452C10.5775 22.6431 10.676 22.741 10.8239 22.8388C11.5141 23.3281 12.2535 23.7195 13.0422 23.9642C15.0141 24.6492 17.1831 24.6981 19.1549 23.9642C19.5986 23.8174 19.9929 23.6217 20.3873 23.377C21.9648 22.4474 22.9507 20.9306 23 19.3648V18.8755H22.507V19.0712Z" fill="black"/>
</g>
<defs>
<clipPath id="clip0_2161_29916">
<rect width="14" height="16" fill="white" transform="translate(9 8.6001)"/>
</clipPath>
</defs>
</svg>
