<svg width="109" height="46" viewBox="0 0 109 46" fill="none" xmlns="http://www.w3.org/2000/svg">
<g clip-path="url(#clip0_2296_14286)">
<path d="M14.9294 31.1814H17.8616V15.5034H14.9294V31.1814ZM26.8955 25.7407C26.8955 23.6899 25.5734 22.639 24.1327 22.639C22.6921 22.639 21.37 23.6729 21.37 25.7407C21.37 27.8085 22.6921 28.8424 24.1327 28.8424C25.5734 28.8255 26.8955 27.7916 26.8955 25.7407ZM29.8277 25.7407C29.8277 29.0797 27.37 31.5034 24.1327 31.5034C20.8955 31.5034 18.4378 29.0797 18.4378 25.7407C18.4378 22.4017 20.8955 19.978 24.1327 19.978C27.37 19.978 29.8277 22.3848 29.8277 25.7407ZM33.031 25.7407C33.031 27.7068 34.3192 28.8085 35.8107 28.8085C37.3022 28.8085 38.0649 27.8085 38.3022 26.978L40.8955 27.8424C40.4039 29.656 38.709 31.5034 35.8107 31.5034C32.6073 31.5034 30.0819 29.0797 30.0819 25.7407C30.0819 22.4017 32.5565 19.978 35.726 19.978C38.6921 19.978 40.37 21.8085 40.8277 23.639L38.2005 24.5204C37.9294 23.6221 37.2514 22.6899 35.7938 22.6899C34.2853 22.6899 33.031 23.7746 33.031 25.7407ZM47.4717 24.8763L51.9124 31.1814H48.3022L45.4209 27.0288L44.2005 28.317V31.1814H41.2683V15.5034H44.2005V24.3509L47.9633 20.3H51.8107M60.6751 20.3L63.0141 27.3L65.031 20.3H67.9463L64.5395 31.1814H61.6073L59.0649 23.7577L56.5734 31.1814H53.5904L50.1158 20.3H53.2175L55.2344 27.2831L57.6073 20.3M75.7938 25.7407C75.7938 23.6899 74.4717 22.639 73.031 22.639C71.5904 22.639 70.2683 23.6729 70.2683 25.7407C70.2683 27.8085 71.5904 28.8424 73.031 28.8424C74.4717 28.8424 75.7938 27.7916 75.7938 25.7407ZM78.7429 25.7407C78.7429 29.0797 76.2853 31.5034 73.048 31.5034C69.8107 31.5034 67.3531 29.0797 67.3531 25.7407C67.3531 22.4017 69.8107 19.978 73.048 19.978C76.2853 19.961 78.7429 22.3848 78.7429 25.7407ZM85.9124 23.2153C85.5734 23.1475 85.2853 23.1305 85.031 23.1305C83.5226 23.1305 82.2175 23.8594 82.2175 26.1983V31.1644H79.2853V20.2831H82.1327V21.8932C82.7938 20.4526 84.3022 20.1983 85.2344 20.1983C85.4717 20.1983 85.6921 20.2153 85.9124 20.2492M92.5734 24.8763L97.0141 31.1814H93.4039L90.5395 27.0288L89.3192 28.317V31.1814H86.387V15.5034H89.3192V24.3509L93.0819 20.3H96.9294M98.7429 27.5882C98.8107 28.4526 99.4548 29.2492 100.726 29.2492C101.692 29.2492 102.167 28.7407 102.167 28.1644C102.167 27.6729 101.828 27.2831 100.997 27.0966L99.5565 26.7577C97.4548 26.3 96.5056 25.0288 96.5056 23.5034C96.5056 21.5543 98.2344 19.9441 100.573 19.9441C103.675 19.9441 104.709 21.9102 104.845 23.0797L102.387 23.639C102.302 22.9949 101.828 22.1814 100.59 22.1814C99.8107 22.1814 99.2005 22.639 99.2005 23.2661C99.2005 23.7916 99.5904 24.1305 100.201 24.2322L101.743 24.5712C103.895 25.0119 104.963 26.317 104.963 27.9102C104.963 29.6729 103.59 31.4865 100.743 31.4865C97.4717 31.4865 96.3531 29.3678 96.2175 28.1305" fill="white"/>
<path opacity="0.2" d="M3.28561 27.2644H7.20087V23.3491H3.28561V27.2644Z" fill="white"/>
<path opacity="0.1" d="M3.28561 31.1789H7.20087V27.2637H3.28561V31.1789Z" fill="white"/>
<path opacity="0.6" d="M3.28561 19.4353H7.20087V15.52H3.28561V19.4353Z" fill="white"/>
<path opacity="0.4" d="M3.28561 23.3498H7.20087V19.4346H3.28561V23.3498Z" fill="white"/>
<path opacity="0.8" d="M10.5227 15.5373C10.404 15.5204 10.2685 15.5034 10.1498 15.5034H7.20065V19.4356H11.1159V15.7068C10.9295 15.6221 10.7261 15.5712 10.5227 15.5373Z" fill="white"/>
<path d="M13.7603 19.4393V19.4223C13.7603 17.7104 12.6586 16.2359 11.1162 15.7104V19.4393" fill="white"/>
<path opacity="0.8" d="M13.7603 19.4346H11.1162V23.1295C12.6416 22.5871 13.7433 21.1464 13.7603 19.4346Z" fill="white"/>
<path opacity="0.6" d="M7.20065 19.4346V23.3498L9.82777 23.3329C10.3871 23.3329 10.7091 23.2651 11.1159 23.1295V19.4346" fill="white"/>
<path opacity="0.4" d="M10.6244 23.3495C10.5057 23.3325 10.3871 23.3325 10.2685 23.3325C10.1498 23.3325 7.20065 23.3495 7.20065 23.3495V27.2647H11.1159V23.4173C10.9464 23.3834 10.7939 23.3664 10.6244 23.3495Z" fill="white"/>
<path opacity="0.6" d="M11.1162 23.415V27.2625H14.201C14.201 25.3811 12.8789 23.8049 11.1162 23.415Z" fill="white"/>
<path opacity="0.2" d="M7.20065 27.2637V31.1789H10.6244C10.7939 31.162 10.9634 31.145 11.1159 31.0942V27.2637" fill="white"/>
<path opacity="0.4" d="M11.1162 31.0945C12.8789 30.7047 14.201 29.1284 14.201 27.2471H11.1162" fill="white"/>
<path d="M13.7603 19.4393V19.4223C13.7603 17.7104 12.6586 16.2359 11.1162 15.7104V19.4393" fill="white"/>
</g>
<defs>
<clipPath id="clip0_2296_14286">
<rect width="101.678" height="16" fill="white" transform="translate(3.28577 15.5)"/>
</clipPath>
</defs>
</svg>
