<svg width="596" height="73" viewBox="0 0 596 73" fill="none" xmlns="http://www.w3.org/2000/svg">
<g clip-path="url(#clip0_2319_26656)">
<path d="M8.58414 12.2646V61.7365H54.5251V56.1913H14.0859V17.8098H54.5251V12.2646H8.58414Z" fill="white"/>
<path d="M87.6373 34.3427L95.3701 22.2559H101.759L92.5813 36.6171V37.3836L102.266 51.7192H95.6237L87.6373 39.6578V34.3427Z" fill="white"/>
<path d="M120.597 39.6578H127.95L124.654 25.0413H123.893L120.597 39.6578ZM129.192 45.203H119.355L117.884 51.7192H112.129L119.101 22.2559H129.445L136.418 51.7192H130.662L129.192 45.203Z" fill="white"/>
<path d="M151.022 22.2559H156.523V46.4296H169.808V51.7192H151.022V22.2559Z" fill="white"/>
<path d="M59.0888 31.2748C59.0888 30.0994 58.6324 29.0772 57.7196 28.2085C56.807 27.3396 55.5393 26.9051 53.8913 26.9051C52.4968 26.9051 51.4066 27.1862 50.5953 27.774C49.784 28.3617 49.3783 29.1284 49.3783 30.0994C49.3783 30.6104 49.4797 31.0704 49.6825 31.4793C49.8853 31.8882 50.215 32.2459 50.6966 32.5781C51.1783 32.9103 51.8123 33.1914 52.6236 33.4469C53.4096 33.7024 54.4237 33.9325 55.6406 34.1624C58.7085 34.7246 61.041 35.6701 62.6636 36.9733C64.2863 38.3021 65.0976 40.2442 65.0976 42.825V43.3362C65.0976 44.7161 64.8441 45.9426 64.3623 47.067C63.8806 48.1658 63.1708 49.1113 62.258 49.9035C61.3452 50.6956 60.2297 51.2834 58.9113 51.7177C57.5929 52.1266 56.1223 52.3565 54.4744 52.3565C52.5475 52.3565 50.8742 52.0755 49.4036 51.5389C47.9331 51.0022 46.7162 50.2357 45.7527 49.2645C44.7893 48.2935 44.0287 47.1692 43.5469 45.866C43.0399 44.5627 42.7863 43.1318 42.7863 41.5985V41.343H48.288C48.288 43.1062 48.7952 44.5117 49.8093 45.5848C50.8234 46.6325 52.3954 47.1692 54.5505 47.1692C56.2238 47.1692 57.4661 46.8115 58.2774 46.0704C59.0888 45.3293 59.4945 44.4606 59.4945 43.464C59.4945 42.9784 59.4184 42.544 59.2409 42.0841C59.0634 41.6496 58.7845 41.2663 58.3536 40.9086C57.9479 40.5508 57.3647 40.2442 56.6295 39.9631C55.8942 39.682 54.9814 39.4521 53.866 39.2476C52.3954 38.9921 51.0517 38.6599 49.8093 38.251C48.5923 37.8421 47.5275 37.3055 46.6147 36.6411C45.702 35.9767 45.0174 35.1334 44.5104 34.1113C44.0033 33.0891 43.7497 31.8626 43.7497 30.406V30.1505C43.7497 28.9494 44.0033 27.8251 44.485 26.803C44.9668 25.7807 45.6513 24.8864 46.5386 24.1198C47.426 23.3532 48.4656 22.7655 49.7078 22.3566C50.9502 21.9478 52.3193 21.7178 53.866 21.7178C55.5899 21.7178 57.1112 21.9733 58.4549 22.4588C59.7986 22.9444 60.9143 23.6087 61.8269 24.452C62.7397 25.2953 63.3482 26.2919 63.8806 27.3651C64.5398 28.6684 64.5651 31.3259 64.5651 31.3259L59.0888 31.2748Z" fill="white"/>
<path d="M182.637 22.2559V51.7192H201.602V46.4296H188.164V27.571H201.602V22.2559H182.637Z" fill="white"/>
<path d="M83.7075 22.2559H78.2058V51.7192H83.7075V22.2559Z" fill="white"/>
<path d="M197.393 34.3442H192.12V39.6594H197.393V34.3442Z" fill="white"/>
</g>
<g filter="url(#filter0_d_2319_26656)">
<path d="M221.293 52V21.2H232.953C235.447 21.2 237.5 21.6253 239.113 22.476C240.756 23.3267 241.973 24.4707 242.765 25.908C243.587 27.316 243.997 28.9 243.997 30.66C243.997 32.3027 243.601 33.8427 242.809 35.28C242.047 36.7173 240.844 37.876 239.201 38.756C237.559 39.6067 235.461 40.032 232.909 40.032H227.453V52H221.293ZM237.221 52L230.929 38.492H237.617L244.261 52H237.221ZM227.453 35.544H232.601C234.332 35.544 235.608 35.1187 236.429 34.268C237.28 33.4173 237.705 32.288 237.705 30.88C237.705 29.5013 237.295 28.4013 236.473 27.58C235.652 26.7587 234.347 26.348 232.557 26.348H227.453V35.544ZM251.82 52V21.2H272.192V26.172H257.98V33.96H270.872V38.756H257.98V47.028H272.192V52H251.82ZM290.89 52.528C288.661 52.528 286.666 52.1467 284.906 51.384C283.176 50.6213 281.797 49.5067 280.77 48.04C279.744 46.5733 279.216 44.7987 279.186 42.716H285.698C285.728 43.596 285.948 44.388 286.358 45.092C286.798 45.796 287.4 46.3533 288.162 46.764C288.925 47.1747 289.82 47.38 290.846 47.38C291.756 47.38 292.533 47.2333 293.178 46.94C293.853 46.6467 294.366 46.236 294.718 45.708C295.1 45.18 295.29 44.5347 295.29 43.772C295.29 42.9507 295.07 42.2467 294.63 41.66C294.22 41.0733 293.648 40.5747 292.914 40.164C292.181 39.7533 291.33 39.3867 290.362 39.064C289.424 38.712 288.412 38.36 287.326 38.008C284.892 37.216 283.029 36.16 281.738 34.84C280.477 33.52 279.846 31.76 279.846 29.56C279.846 27.6827 280.286 26.084 281.166 24.764C282.076 23.444 283.322 22.432 284.906 21.728C286.52 21.024 288.338 20.672 290.362 20.672C292.445 20.672 294.278 21.0387 295.862 21.772C297.446 22.476 298.693 23.5027 299.602 24.852C300.541 26.2013 301.04 27.8 301.098 29.648H294.498C294.469 28.9733 294.278 28.3573 293.926 27.8C293.574 27.2133 293.09 26.744 292.474 26.392C291.858 26.04 291.125 25.864 290.274 25.864C289.541 25.8347 288.866 25.952 288.25 26.216C287.664 26.4507 287.194 26.8173 286.842 27.316C286.49 27.7853 286.314 28.3867 286.314 29.12C286.314 29.8533 286.49 30.4693 286.842 30.968C287.194 31.4373 287.678 31.848 288.294 32.2C288.94 32.552 289.688 32.8893 290.538 33.212C291.389 33.5053 292.313 33.8133 293.31 34.136C294.865 34.664 296.288 35.2947 297.578 36.028C298.869 36.732 299.896 37.656 300.658 38.8C301.45 39.944 301.846 41.4547 301.846 43.332C301.846 44.9747 301.421 46.5 300.57 47.908C299.72 49.2867 298.488 50.4013 296.874 51.252C295.261 52.1027 293.266 52.528 290.89 52.528ZM309.522 52V21.2H329.894V26.172H315.682V33.96H328.574V38.756H315.682V47.028H329.894V52H309.522ZM335.876 52L347.096 21.2H354.092L365.312 52H358.8L350.572 28.196L342.3 52H335.876ZM340.804 45.092L342.432 40.296H358.272L359.856 45.092H340.804ZM371.907 52V21.2H383.567C386.061 21.2 388.114 21.6253 389.727 22.476C391.37 23.3267 392.587 24.4707 393.379 25.908C394.201 27.316 394.611 28.9 394.611 30.66C394.611 32.3027 394.215 33.8427 393.423 35.28C392.661 36.7173 391.458 37.876 389.815 38.756C388.173 39.6067 386.075 40.032 383.523 40.032H378.067V52H371.907ZM387.835 52L381.543 38.492H388.231L394.875 52H387.835ZM378.067 35.544H383.215C384.946 35.544 386.222 35.1187 387.043 34.268C387.894 33.4173 388.319 32.288 388.319 30.88C388.319 29.5013 387.909 28.4013 387.087 27.58C386.266 26.7587 384.961 26.348 383.171 26.348H378.067V35.544ZM416.338 52.528C413.258 52.528 410.603 51.868 408.374 50.548C406.145 49.1987 404.429 47.336 403.226 44.96C402.023 42.5547 401.422 39.7827 401.422 36.644C401.422 33.5053 402.023 30.7333 403.226 28.328C404.429 25.9227 406.145 24.0453 408.374 22.696C410.603 21.3467 413.258 20.672 416.338 20.672C420.063 20.672 423.129 21.6107 425.534 23.488C427.939 25.3653 429.435 28.0053 430.022 31.408H423.246C422.894 29.7653 422.117 28.504 420.914 27.624C419.741 26.7147 418.186 26.26 416.25 26.26C414.461 26.26 412.921 26.6853 411.63 27.536C410.369 28.3573 409.401 29.5453 408.726 31.1C408.051 32.6547 407.714 34.5027 407.714 36.644C407.714 38.7853 408.051 40.6333 408.726 42.188C409.401 43.7133 410.369 44.9013 411.63 45.752C412.921 46.5733 414.461 46.984 416.25 46.984C418.186 46.984 419.741 46.5733 420.914 45.752C422.087 44.9013 422.865 43.728 423.246 42.232H430.022C429.435 45.4293 427.939 47.952 425.534 49.8C423.129 51.6187 420.063 52.528 416.338 52.528ZM457.048 52V21.2H463.208V52H457.048ZM437.644 52V21.2H443.804V52H437.644ZM443.012 38.756V33.784H458.06V38.756H443.012ZM504.094 52V21.2H510.254V52H504.094ZM484.69 52V21.2H490.85V52H484.69ZM490.058 38.756V33.784H505.106V38.756H490.058ZM530.881 52.528C528.593 52.528 526.525 52.0733 524.677 51.164C522.829 50.2547 521.348 48.8907 520.233 47.072C519.148 45.224 518.605 42.892 518.605 40.076V21.2H524.765V40.12C524.765 41.616 525.014 42.8627 525.513 43.86C526.012 44.8573 526.716 45.62 527.625 46.148C528.564 46.6467 529.693 46.896 531.013 46.896C532.333 46.896 533.448 46.6467 534.357 46.148C535.296 45.62 536.014 44.8573 536.513 43.86C537.012 42.8627 537.261 41.616 537.261 40.12V21.2H543.421V40.076C543.421 42.892 542.849 45.224 541.705 47.072C540.59 48.8907 539.08 50.2547 537.173 51.164C535.266 52.0733 533.169 52.528 530.881 52.528ZM551.716 52V21.2H564.52C566.661 21.2 568.465 21.5373 569.932 22.212C571.399 22.8867 572.513 23.8253 573.276 25.028C574.039 26.2013 574.42 27.58 574.42 29.164C574.42 30.6893 574.083 31.98 573.408 33.036C572.733 34.092 571.839 34.9133 570.724 35.5C569.639 36.0573 568.436 36.38 567.116 36.468L567.82 35.984C569.228 36.0427 570.475 36.424 571.56 37.128C572.675 37.832 573.54 38.756 574.156 39.9C574.801 41.0147 575.124 42.2467 575.124 43.596C575.124 45.2387 574.728 46.7053 573.936 47.996C573.144 49.2573 571.985 50.24 570.46 50.944C568.964 51.648 567.131 52 564.96 52H551.716ZM557.876 46.984H563.992C565.547 46.984 566.749 46.632 567.6 45.928C568.451 45.1947 568.876 44.168 568.876 42.848C568.876 41.528 568.436 40.4867 567.556 39.724C566.676 38.9613 565.459 38.58 563.904 38.58H557.876V46.984ZM557.876 34.004H563.508C565.004 34.004 566.148 33.6667 566.94 32.992C567.732 32.288 568.128 31.3053 568.128 30.044C568.128 28.812 567.732 27.8587 566.94 27.184C566.148 26.48 564.989 26.128 563.464 26.128H557.876V34.004Z" fill="white"/>
</g>
<defs>
<filter id="filter0_d_2319_26656" x="201.293" y="0.671875" width="393.831" height="71.856" filterUnits="userSpaceOnUse" color-interpolation-filters="sRGB">
<feFlood flood-opacity="0" result="BackgroundImageFix"/>
<feColorMatrix in="SourceAlpha" type="matrix" values="0 0 0 0 0 0 0 0 0 0 0 0 0 0 0 0 0 0 127 0" result="hardAlpha"/>
<feOffset/>
<feGaussianBlur stdDeviation="10"/>
<feComposite in2="hardAlpha" operator="out"/>
<feColorMatrix type="matrix" values="0 0 0 0 0 0 0 0 0 0 0 0 0 0 0 0 0 0 0.35 0"/>
<feBlend mode="normal" in2="BackgroundImageFix" result="effect1_dropShadow_2319_26656"/>
<feBlend mode="normal" in="SourceGraphic" in2="effect1_dropShadow_2319_26656" result="shape"/>
</filter>
<clipPath id="clip0_2319_26656">
<rect width="193.522" height="49.4719" fill="white" transform="translate(8.58414 12.2646)"/>
</clipPath>
</defs>
</svg>
