<svg width="109" height="46" viewBox="0 0 109 46" fill="none" xmlns="http://www.w3.org/2000/svg">
<g clip-path="url(#clip0_2296_26606)">
<path d="M9.37898 20.293L12.3664 17.2695V26.0116L9.37898 28.6376V20.293Z" fill="white"/>
<path d="M4.96982 21.8129L6.40955 22.9532L7.95725 21.6401V26.0112L4.96982 28.6372V21.8129Z" fill="white"/>
<path d="M3.5661 20.293L0.560669 17.2695V28.6722L3.5661 26.2189V20.293Z" fill="white"/>
<path d="M106.633 27.0654H108.54V19.1527H106.633V27.0654ZM93.6751 22.9881V20.7076H95.5647C96.5005 20.7076 97.0584 21.0877 97.0584 21.8306V21.8478C97.0584 22.5216 96.5185 22.9708 95.6007 22.9708H93.6751V22.9881ZM91.7674 27.0654H93.6751V24.5257H95.1688L97.0224 27.0654H99.254L97.1304 24.232C98.2282 23.8519 98.9841 23.0572 98.9841 21.7787V21.7615C98.9841 21.0186 98.7321 20.3966 98.2462 19.9474C97.6703 19.4291 96.8245 19.1354 95.7267 19.1354H91.7674V27.0654ZM78.8279 23.7483L79.9797 21.1741L81.1314 23.7483H78.8279ZM75.4085 27.0654H77.3522L78.144 25.2859H81.8153L82.6072 27.0654H84.6048L80.8975 19.0836H79.1338L75.4085 27.0654ZM65.6544 27.1691C67.526 27.1691 68.8398 26.288 68.8398 24.7158V24.6985C68.8398 23.3164 67.8499 22.7462 66.0863 22.3143C64.5926 21.9688 64.2146 21.796 64.2146 21.2777V21.2604C64.2146 20.8803 64.5926 20.5694 65.3304 20.5694C66.0683 20.5694 66.8241 20.8631 67.58 21.3468L68.5698 20.0338C67.688 19.3945 66.6082 19.0317 65.3484 19.0317C63.5848 19.0317 62.307 19.982 62.307 21.4159V21.4332C62.307 23.0054 63.4408 23.4546 65.1865 23.8519C66.6262 24.1975 66.9321 24.4221 66.9321 24.854V24.8713C66.9321 25.3377 66.4642 25.6142 65.6904 25.6142C64.7005 25.6142 63.8907 25.2341 63.0988 24.6467L61.9651 25.8733C63.0269 26.7544 64.3406 27.1691 65.6544 27.1691ZM52.0129 27.1691C53.8846 27.1691 55.1983 26.288 55.1983 24.7158V24.6985C55.1983 23.3164 54.2085 22.7462 52.4449 22.3143C50.9511 21.9688 50.5732 21.796 50.5732 21.2777V21.2604C50.5732 20.8803 50.9511 20.5694 51.689 20.5694C52.4269 20.5694 53.1827 20.8631 53.9386 21.3468L54.9284 20.0338C54.0466 19.3945 52.9668 19.0317 51.707 19.0317C49.9433 19.0317 48.6656 19.982 48.6656 21.4159V21.4332C48.6656 23.0054 49.7994 23.4546 51.545 23.8519C52.9848 24.1975 53.2907 24.4221 53.2907 24.854V24.8713C53.2907 25.3377 52.8228 25.6142 52.0489 25.6142C51.0591 25.6142 50.2493 25.2341 49.4574 24.6467L48.3236 25.8733C49.3854 26.7544 50.6992 27.1691 52.0129 27.1691ZM34.8082 27.0654H41.4129V25.5105H36.7158V23.8519H40.8011V22.297H36.7158V20.6903H41.3589V19.1354H34.8262V27.0654H34.8082ZM18.2153 27.0654H20.087V21.9342L22.4985 25.2859H22.5525L25 21.8997V27.0654H26.8897V19.1527H24.8381L22.5525 22.4871L20.2669 19.1354H18.2153V27.0654Z" fill="white"/>
</g>
<defs>
<clipPath id="clip0_2296_26606">
<rect width="108" height="24" fill="white" transform="translate(0.571472 11)"/>
</clipPath>
</defs>
</svg>
