<svg width="109" height="46" viewBox="0 0 109 46" fill="none" xmlns="http://www.w3.org/2000/svg">
<g clip-path="url(#clip0_2296_14284)">
<path d="M22.9067 22.6996L19.208 16.2828C18.9199 15.7991 18.3987 15.5 17.8336 15.5H10.4361C9.86437 15.5 9.341 15.8035 9.05733 16.296L5.3608 22.704C5.07712 23.1965 5.07712 23.8035 5.3608 24.296L9.05733 30.704C9.341 31.2009 9.86657 31.5 10.4361 31.5H17.8314C18.3987 31.5 18.9221 31.1965 19.2058 30.704L22.9045 24.296C23.1838 23.7991 23.1838 23.1921 22.9045 22.6996H22.9067ZM14.1326 28.9997V27.9002C18.0579 27.9002 20.0238 23.1592 17.2486 20.384C14.4735 17.6089 9.72803 19.5704 9.72803 23.4956C9.72803 24.4588 10.0403 25.3911 10.6274 26.1542L11.4191 25.3802C11.0364 24.826 10.8275 24.1685 10.8319 23.4956C10.8319 20.5445 14.3943 19.0712 16.4768 21.1537C18.5593 23.2361 17.0837 26.8029 14.1392 26.8029V25.7012C16.1008 25.6946 17.0815 23.3175 15.6895 21.9343C14.2976 20.5467 11.927 21.5297 11.927 23.4934C11.927 23.8804 12.0282 24.2609 12.2239 24.5929L13.0441 23.7925C13.0156 23.6979 13.0024 23.5968 13.0024 23.4978C13.0024 22.4951 14.2184 21.9893 14.9309 22.6974C15.6434 23.4098 15.1398 24.6259 14.1304 24.6259C14.0227 24.6259 13.9149 24.6083 13.8094 24.5709L10.9683 27.3461C10.9441 27.3725 10.9089 27.3966 10.8803 27.4142C10.8715 27.423 10.8583 27.423 10.8517 27.4274C10.8297 27.4428 10.8055 27.456 10.7836 27.4648C10.7682 27.4692 10.755 27.4692 10.7418 27.4758L10.6802 27.4978C10.667 27.4978 10.6538 27.4978 10.6428 27.5066C10.623 27.5066 10.601 27.511 10.5856 27.511C10.5681 27.511 10.5483 27.5066 10.5263 27.5066C10.5087 27.5066 10.4933 27.5022 10.4757 27.4978L10.4141 27.4758C10.4009 27.4692 10.3877 27.4692 10.3723 27.4648C10.3525 27.456 10.3306 27.4428 10.3152 27.4318C10.302 27.423 10.2888 27.4186 10.2778 27.4098C10.2558 27.3922 10.2404 27.3769 10.2228 27.3593C10.214 27.3549 10.2008 27.3461 10.192 27.3351C6.0117 23.0316 10.7528 16.0959 16.2833 18.4291C21.8116 20.7666 20.1359 29.0041 14.137 28.9997H14.1326ZM27.3597 18.3411H30.744C34.0139 18.3081 36.4262 20.4236 36.38 23.478C36.4262 26.4709 34.0139 28.7226 30.744 28.6787H27.3597V18.3411ZM30.7242 26.7743C32.8066 26.7743 34.203 25.4747 34.203 23.4868C34.203 21.4989 32.8418 20.2631 30.7242 20.2631H29.4663V26.7787H30.7242V26.7743ZM44.1315 28.6831H42.1898V27.9332C41.5653 28.5577 40.7055 28.8964 39.8237 28.87C38.1832 28.87 37.1497 27.9112 37.1497 26.5522C37.1497 25.1932 38.28 24.2982 40.0788 24.2982H42.0249V23.9574C42.0975 23.1482 41.3916 22.4819 40.5889 22.594C39.7753 22.616 39.0189 23.0118 38.5351 23.6649L37.4356 22.3609C38.2514 21.3274 39.5048 20.7402 40.8264 20.7644C42.7308 20.5863 44.3273 22.1806 44.1469 24.0849V28.6809H44.1337L44.1315 28.6831ZM42.0139 25.6924H40.3602C39.6676 25.6924 39.2761 25.9585 39.2761 26.4709C39.2761 26.9832 39.7137 27.3175 40.3844 27.3175C41.2684 27.3681 42.0139 26.6644 42.0139 25.7804V25.6924ZM50.2052 28.87C49.3344 28.8986 48.4944 28.5577 47.8853 27.9332V31.5H45.7654V20.9338H47.7115V21.9035C48.3031 21.1317 49.2376 20.7029 50.2074 20.7578C52.3866 20.7776 54.1041 22.6248 53.9699 24.7996C54.1063 26.9832 52.3954 28.837 50.2074 28.87H50.2052ZM49.8138 22.671C48.6549 22.649 47.7357 23.6451 47.8545 24.7996C47.7335 25.9585 48.6505 26.9568 49.8138 26.9437C50.9727 26.948 51.8919 25.9695 51.8215 24.815C51.9095 23.6495 50.9837 22.6622 49.8182 22.671H49.8138ZM59.6632 28.87C58.7924 28.8986 57.9501 28.5577 57.3432 27.9332V31.5H55.2212V20.9338H57.1761V21.9035C57.7632 21.1317 58.6978 20.7073 59.6632 20.7578C61.8468 20.7776 63.5642 22.6248 63.4257 24.7996C63.5642 26.9832 61.8512 28.837 59.6632 28.87ZM59.2717 22.671C58.1129 22.649 57.1981 23.6451 57.3124 24.7996C57.1915 25.9585 58.1085 26.9568 59.2717 26.9437C60.4306 26.948 61.3542 25.9695 61.2794 24.815C61.3718 23.6495 60.4416 22.6578 59.2761 22.671H59.2717ZM71.1178 28.6831L68.4394 25.0349H66.8935V28.6831H64.7715V18.3411H68.6549C70.8165 18.3411 72.38 19.6913 72.38 21.6792C72.4064 22.9283 71.6983 24.0783 70.568 24.6259L73.4971 28.6787H71.1178V28.6831ZM66.8847 23.1701H68.6549C69.5213 23.2625 70.2668 22.5588 70.225 21.6836C70.2492 20.8216 69.5125 20.1289 68.6549 20.2125H66.8891L66.8847 23.1701ZM80.6043 28.6831H78.6582V27.9332C78.0337 28.5577 77.1783 28.8964 76.2965 28.87C74.6516 28.87 73.6181 27.9112 73.6181 26.5522C73.6181 25.1932 74.7484 24.2982 76.5472 24.2982H78.4933V23.9574C78.5637 23.1482 77.86 22.4819 77.0551 22.594C76.2415 22.616 75.485 23.0118 75.0013 23.6649L73.9017 22.3609C74.7198 21.3318 75.9688 20.7402 77.286 20.7644C79.1904 20.5863 80.7891 22.1806 80.6065 24.0893V28.6853V28.6809L80.6043 28.6831ZM78.4845 25.6924H76.8264C76.1359 25.6924 75.7445 25.9585 75.7445 26.4709C75.7445 26.9832 76.1821 27.3175 76.8572 27.3175C77.7368 27.3681 78.4823 26.6644 78.4867 25.7804V25.6924H78.4845ZM90.0007 16.9338V28.6787H88.0546V27.7199C87.4631 28.4874 86.5285 28.9162 85.5631 28.8612C83.3795 28.8414 81.6577 26.9876 81.8006 24.8084C81.6577 22.6292 83.3795 20.7754 85.5631 20.7534C86.4339 20.7117 87.2783 21.0481 87.8831 21.6792V16.9338H90.0007ZM85.9589 22.671C84.8 22.6666 83.8787 23.6451 83.9556 24.7996C83.8633 25.9651 84.7934 26.9568 85.9589 26.9437C87.1222 26.9656 88.037 25.9695 87.9183 24.815C88.0348 23.6605 87.1222 22.6622 85.9589 22.671ZM98.203 28.6831H96.2569V27.9332C95.6324 28.5577 94.777 28.8964 93.8952 28.87C92.2547 28.87 91.219 27.9112 91.219 26.5522C91.219 25.1932 92.3493 24.2982 94.148 24.2982H96.0942V23.9574C96.1645 23.1482 95.4608 22.4819 94.656 22.594C93.8424 22.616 93.0859 23.0118 92.5977 23.6649L91.5026 22.3609C92.3207 21.3318 93.5697 20.7402 94.8869 20.7644C96.7912 20.5863 98.3855 22.1806 98.2074 24.0893V28.6853L98.203 28.6809V28.6831ZM96.0964 25.6924H94.4383C93.7456 25.6924 93.3586 25.9585 93.3586 26.4709C93.3586 26.9832 93.7962 27.3175 94.4669 27.3175C95.3509 27.3681 96.092 26.6644 96.0964 25.7804V25.6924ZM104.609 22.7963H104.05C102.872 22.6578 101.862 23.6341 101.968 24.8172V28.6831H99.8457V20.9338H101.792V21.8595C102.304 21.2064 103.091 20.8304 103.923 20.8392C104.156 20.8304 104.389 20.8634 104.613 20.936V22.7985H104.609V22.7963Z" fill="white"/>
</g>
<defs>
<clipPath id="clip0_2296_14284">
<rect width="99.4634" height="16" fill="white" transform="translate(5.14996 15.5)"/>
</clipPath>
</defs>
</svg>
