<svg width="143" height="64" viewBox="0 0 143 64" fill="none" xmlns="http://www.w3.org/2000/svg">
<g clip-path="url(#clip0_2428_1689)">
<path d="M57.0235 31.3969L26.4871 41.3701C24.6475 38.6839 23.5714 35.435 23.5714 31.9342C23.5714 22.696 31.0624 15.2065 40.3022 15.2065C49.542 15.2065 56.7413 22.4074 57.0235 31.3969Z" fill="#AFAFAF"/>
<path d="M57.033 31.9342C57.033 41.174 49.5436 48.6634 40.3022 48.6634C34.5632 48.6634 29.4985 45.7732 26.4872 41.3701L57.0235 31.397C57.0298 31.5755 57.033 31.7541 57.033 31.9342Z" fill="white"/>
<path d="M67.1002 23.5771H72.9014C73.936 23.5771 74.8734 23.7493 75.7103 24.0953C76.5632 24.4412 77.287 24.9593 77.88 25.6512C78.489 26.3271 78.9529 27.1832 79.2733 28.221C79.6081 29.2428 79.7755 30.4369 79.7755 31.8047C79.7755 33.1725 79.6081 34.3745 79.2733 35.4123C78.9529 36.4341 78.489 37.2902 77.88 37.9821C77.2854 38.658 76.5632 39.1697 75.7103 39.5141C74.8734 39.86 73.936 40.0322 72.9014 40.0322H67.1002V23.5771ZM72.9014 37.2774C74.0285 37.2774 74.9196 36.9395 75.5732 36.2636C76.2428 35.5717 76.5776 34.5179 76.5776 33.1039V30.5102C76.5776 29.0946 76.2428 28.0504 75.5732 27.3745C74.918 26.6826 74.0269 26.3367 72.9014 26.3367H70.1148V37.2774H72.9014Z" fill="white"/>
<path d="M89.5621 37.985H89.4473C89.3405 38.2991 89.1954 38.5988 89.0137 38.881C88.8463 39.1488 88.6247 39.3927 88.3521 39.6127C88.0938 39.8327 87.7734 40.0049 87.3924 40.1308C87.0273 40.2567 86.6001 40.3189 86.1139 40.3189C84.88 40.3189 83.9362 39.9028 83.281 39.0691C82.6258 38.2353 82.299 37.0493 82.299 35.5077V27.7266H85.2227V35.2016C85.2227 36.0497 85.3822 36.7033 85.7026 37.1593C86.023 37.5993 86.5332 37.8193 87.233 37.8193C87.5231 37.8193 87.8037 37.7794 88.0779 37.7013C88.3665 37.6232 88.6183 37.5052 88.8319 37.3474C89.0456 37.1736 89.2193 36.9696 89.358 36.7336C89.4951 36.4817 89.5637 36.1916 89.5637 35.8616V27.7266H92.4874V40.0351H89.5637V37.9835L89.5621 37.985Z" fill="white"/>
<path d="M95.6359 40.037V27.7285H98.5596V29.7802H98.6744C98.9183 29.1202 99.2993 28.5702 99.8158 28.1302C100.348 27.6743 101.08 27.4463 102.009 27.4463C103.243 27.4463 104.187 27.8624 104.842 28.6961C105.497 29.5299 105.824 30.7159 105.824 32.2575V40.0386H102.901V32.5636C102.901 31.6836 102.747 31.0236 102.443 30.582C102.138 30.142 101.636 29.922 100.935 29.922C100.63 29.922 100.334 29.9699 100.044 30.0639C99.7696 30.142 99.5177 30.268 99.2897 30.4417C99.0761 30.5996 98.9007 30.8036 98.7636 31.0555C98.6265 31.2914 98.558 31.5736 98.558 31.9052V40.0402H95.6343L95.6359 40.037Z" fill="white"/>
<path d="M113.655 40.3198C112.772 40.3198 111.979 40.17 111.279 39.8719C110.594 39.5578 110.007 39.1258 109.521 38.5758C109.049 38.0099 108.684 37.3339 108.424 36.548C108.166 35.7462 108.035 34.8502 108.035 33.8603C108.035 32.8703 108.156 32.0046 108.4 31.2187C108.659 30.4328 109.025 29.7648 109.497 29.2148C109.969 28.6489 110.548 28.2169 111.233 27.9172C111.919 27.6031 112.695 27.4453 113.562 27.4453C114.492 27.4453 115.298 27.6111 115.984 27.9411C116.669 28.2711 117.232 28.7191 117.674 29.285C118.115 29.8509 118.442 30.5109 118.656 31.2665C118.884 32.0062 118.998 32.7985 118.998 33.6482V34.6382H111.072V34.9443C111.072 35.8402 111.316 36.564 111.804 37.114C112.292 37.648 113.014 37.9158 113.974 37.9158C114.705 37.9158 115.298 37.758 115.756 37.4439C116.228 37.1299 116.647 36.7282 117.012 36.2419L118.589 38.0577C118.101 38.7655 117.431 39.3235 116.578 39.7316C115.742 40.1253 114.766 40.3214 113.655 40.3214V40.3198ZM113.609 29.709C112.832 29.709 112.215 29.9769 111.759 30.5109C111.302 31.0449 111.074 31.7368 111.074 32.5865V32.7746H115.962V32.5626C115.962 31.7145 115.756 31.0306 115.345 30.5109C114.949 29.9769 114.371 29.709 113.609 29.709Z" fill="white"/>
</g>
<defs>
<clipPath id="clip0_2428_1689">
<rect width="95.4286" height="33.4568" fill="white" transform="translate(23.5714 15.2065)"/>
</clipPath>
</defs>
</svg>
