<svg width="32" height="32" viewBox="0 0 32 32" fill="none" xmlns="http://www.w3.org/2000/svg">
<path d="M15.9998 29.3333C14.1554 29.3333 12.4221 28.9833 10.7998 28.2833C9.17761 27.5833 7.7665 26.6333 6.5665 25.4333C5.3665 24.2333 4.4165 22.8222 3.7165 21.2C3.0165 19.5778 2.6665 17.8444 2.6665 16C2.6665 14.1556 3.0165 12.4222 3.7165 10.8C4.4165 9.17778 5.3665 7.76667 6.5665 6.56667C7.7665 5.36667 9.17761 4.41667 10.7998 3.71667C12.4221 3.01667 14.1554 2.66667 15.9998 2.66667C17.8443 2.66667 19.5776 3.01667 21.1998 3.71667C22.8221 4.41667 24.2332 5.36667 25.4332 6.56667C26.6332 7.76667 27.5832 9.17778 28.2832 10.8C28.9832 12.4222 29.3332 14.1556 29.3332 16C29.3332 17.8444 28.9832 19.5778 28.2832 21.2C27.5832 22.8222 26.6332 24.2333 25.4332 25.4333C24.2332 26.6333 22.8221 27.5833 21.1998 28.2833C19.5776 28.9833 17.8443 29.3333 15.9998 29.3333ZM14.6665 26.6V24C13.9332 24 13.3054 23.7389 12.7832 23.2167C12.2609 22.6944 11.9998 22.0667 11.9998 21.3333V20L5.59984 13.6C5.53317 14 5.47206 14.4 5.4165 14.8C5.36095 15.2 5.33317 15.6 5.33317 16C5.33317 18.6889 6.2165 21.0444 7.98317 23.0667C9.74984 25.0889 11.9776 26.2667 14.6665 26.6ZM23.8665 23.2C24.3109 22.7111 24.7109 22.1833 25.0665 21.6167C25.4221 21.05 25.7165 20.4611 25.9498 19.85C26.1832 19.2389 26.3609 18.6111 26.4832 17.9667C26.6054 17.3222 26.6665 16.6667 26.6665 16C26.6665 13.8222 26.0609 11.8333 24.8498 10.0333C23.6387 8.23334 22.0221 6.93334 19.9998 6.13334V6.66667C19.9998 7.4 19.7387 8.02778 19.2165 8.55C18.6943 9.07223 18.0665 9.33334 17.3332 9.33334H14.6665V12C14.6665 12.3778 14.5387 12.6944 14.2832 12.95C14.0276 13.2056 13.7109 13.3333 13.3332 13.3333H10.6665V16H18.6665C19.0443 16 19.3609 16.1278 19.6165 16.3833C19.8721 16.6389 19.9998 16.9556 19.9998 17.3333V21.3333H21.3332C21.9109 21.3333 22.4332 21.5056 22.8998 21.85C23.3665 22.1944 23.6887 22.6444 23.8665 23.2Z" fill="white"/>
</svg>
