<svg width="20" height="20" viewBox="0 0 20 20" fill="none" xmlns="http://www.w3.org/2000/svg">
<g clip-path="url(#clip0_2082_15123)">
<path d="M19.8783 5.1229C19.8343 5.07804 19.7807 5.04371 19.7216 5.02249C19.6624 5.00128 19.5992 4.99373 19.5367 5.0004L12.0367 5.83374C11.9585 5.84211 11.8842 5.87246 11.8225 5.92126C11.7609 5.97006 11.7143 6.03532 11.6881 6.1095C11.662 6.18368 11.6573 6.26375 11.6748 6.34044C11.6922 6.41714 11.731 6.48733 11.7867 6.5429L14.5308 9.28707L10.8333 12.9887L6.42251 8.5779C6.26624 8.42168 6.05432 8.33391 5.83335 8.33391C5.61238 8.33391 5.40045 8.42168 5.24418 8.5779L0.24418 13.5779C0.0923821 13.7351 0.00838673 13.9456 0.0102854 14.1641C0.0121841 14.3826 0.0998249 14.5916 0.254332 14.7461C0.408838 14.9006 0.617849 14.9882 0.836346 14.9901C1.05484 14.992 1.26535 14.908 1.42251 14.7562L5.83335 10.3454L10.2442 14.7562C10.4005 14.9125 10.6124 15.0002 10.8333 15.0002C11.0543 15.0002 11.2662 14.9125 11.4225 14.7562L15.7117 10.4679L18.455 13.2121C18.4938 13.2507 18.5398 13.2814 18.5904 13.3023C18.641 13.3231 18.6953 13.3338 18.75 13.3337C18.7968 13.3339 18.8433 13.326 18.8875 13.3104C18.9622 13.2849 19.028 13.2386 19.0775 13.1771C19.1269 13.1156 19.1578 13.0413 19.1667 12.9629L20 5.4629C20.0065 5.40073 19.999 5.33789 19.9779 5.27904C19.9569 5.22018 19.9228 5.16682 19.8783 5.1229Z" fill="white"/>
</g>
<defs>
<clipPath id="clip0_2082_15123">
<rect width="20" height="20" fill="white"/>
</clipPath>
</defs>
</svg>
