<svg width="21" height="20" viewBox="0 0 21 20" fill="none" xmlns="http://www.w3.org/2000/svg">
<path d="M2.1665 15.8333V14.1667H10.4998V15.8333H2.1665ZM2.1665 11.6667V10H6.33317V11.6667H2.1665ZM2.1665 7.5V5.83333H6.33317V7.5H2.1665ZM17.6665 15.8333L14.4582 12.625C14.1248 12.8611 13.7603 13.0382 13.3644 13.1562C12.9686 13.2743 12.5693 13.3333 12.1665 13.3333C11.0137 13.3333 10.0311 12.9271 9.21859 12.1146C8.40609 11.3021 7.99984 10.3194 7.99984 9.16667C7.99984 8.01389 8.40609 7.03125 9.21859 6.21875C10.0311 5.40625 11.0137 5 12.1665 5C13.3193 5 14.3019 5.40625 15.1144 6.21875C15.9269 7.03125 16.3332 8.01389 16.3332 9.16667C16.3332 9.56944 16.2741 9.96875 16.1561 10.3646C16.038 10.7604 15.8609 11.125 15.6248 11.4583L18.8332 14.6667L17.6665 15.8333ZM12.1665 11.6667C12.8609 11.6667 13.4512 11.4236 13.9373 10.9375C14.4234 10.4514 14.6665 9.86111 14.6665 9.16667C14.6665 8.47222 14.4234 7.88194 13.9373 7.39583C13.4512 6.90972 12.8609 6.66667 12.1665 6.66667C11.4721 6.66667 10.8818 6.90972 10.3957 7.39583C9.90956 7.88194 9.6665 8.47222 9.6665 9.16667C9.6665 9.86111 9.90956 10.4514 10.3957 10.9375C10.8818 11.4236 11.4721 11.6667 12.1665 11.6667Z" fill="white"/>
</svg>
