<svg width="154" height="64" viewBox="0 0 154 64" fill="none" xmlns="http://www.w3.org/2000/svg">
<path d="M12.0189 37.422H9.40417V26.2293H12.2124C15.9682 26.2293 18.0371 28.112 18.0371 32.0002C18.0371 35.3476 16.1567 37.4171 12.0189 37.4171V37.422ZM12.5894 24.6514H6.31317V24.912C6.85893 25.2413 7.12189 25.6198 7.12189 27.1731V36.4094C7.12189 37.9627 6.88374 38.3412 6.31317 38.6705V38.931H12.1875C17.6352 38.931 20.4633 35.7507 20.4633 31.3906C20.4633 27.5024 17.7295 24.6514 12.5894 24.6514ZM25.6728 33.2733L27.9799 28.0432L30.287 33.2733H25.6728ZM34.3752 36.7633L28.7638 24.4892H27.9055L22.3189 36.7633C21.7731 37.9627 21.4605 38.4149 20.8453 38.6951V38.9556H24.5565V38.6951C23.8172 38.41 23.5592 37.9627 24.2241 36.4585L24.9832 34.7135H30.927L31.6861 36.4585C32.351 37.943 32.1128 38.3903 31.448 38.6951V38.9556H35.6801V38.6951C35.2038 38.41 34.921 37.9627 34.3703 36.7633H34.3752ZM42.0109 38.7197C41.5594 38.4837 41.2022 38.0118 41.2022 36.4585V26.1605H43.0826C45.3649 26.1605 46.5308 27.0306 46.5308 28.9427C46.5308 30.6877 45.4393 31.7691 43.3456 31.7691H41.9911V31.9805L42.6311 33.2782H43.2513C43.9409 33.2782 44.1295 33.5141 45.1515 34.8561L47.7414 38.2969C48.1433 38.8377 48.4559 39.0048 48.9768 39.0048H51.5221V38.7443C50.9763 38.5329 50.5695 38.2281 49.5722 36.955L47.791 34.7184C46.8384 33.5387 46.3175 32.9292 45.6973 32.6933C47.8357 32.1525 48.9322 30.6435 48.9322 28.8542C48.9322 26.2146 47.151 24.7055 43.3208 24.7055H38.1112V24.966C38.5627 25.202 38.9199 25.6739 38.9199 27.2272V36.4635C38.9199 38.0168 38.5627 38.5132 38.1112 38.7246V38.9851H42.0109V38.7246V38.7197ZM60.0806 38.7197C59.4604 38.3658 59.1776 37.9676 59.1776 36.3406V26.2097H60.9389C63.1964 26.2097 63.628 26.539 64.2185 27.2714L64.4814 27.2026L64.0547 24.4941C63.1964 24.5875 62.0801 24.6809 60.676 24.6809H55.3722C53.9681 24.6809 52.8517 24.6121 51.9934 24.4941L51.5667 27.2026L51.8297 27.2714C52.425 26.539 52.8517 26.2097 55.1092 26.2097H56.8705V36.3406C56.8705 37.9676 56.5828 38.3658 55.9675 38.7197V38.9802H60.0806V38.7197ZM69.0013 38.7197C68.3613 38.4592 68.0983 37.9676 68.2869 36.3848L69.2395 29.2671L73.9479 38.7836H74.8261L79.604 29.2425L80.4821 36.4536C80.6707 37.9873 80.4573 38.4346 79.862 38.6902V38.9507H83.7865V38.6902C83.2407 38.4051 83.0274 37.9824 82.8091 36.5224L81.142 24.4843H80.0952L74.6971 35.5098L69.299 24.4843H68.2521L66.5404 36.4536C66.3271 37.9381 66.0195 38.3854 65.4241 38.6902V38.9507H68.9914V38.7148L69.0013 38.7197ZM93.4266 37.7071C90.3604 37.7071 88.0037 35.0675 88.0037 31.4644C88.0037 27.8613 90.0032 25.9049 93.0198 25.9049C96.0363 25.9049 98.4427 28.5445 98.4427 32.1476C98.4427 35.5885 96.4432 37.7071 93.4266 37.7071ZM93.2083 24.3467C88.5693 24.3467 85.5528 27.8809 85.5528 31.9313C85.5528 35.7704 88.3113 39.2801 93.2331 39.2801C97.8721 39.2801 100.889 35.7458 100.889 31.6954C100.864 27.8564 98.1053 24.3467 93.2083 24.3467ZM113.332 24.9365C113.927 25.2905 114.235 25.6886 114.235 27.3157V33.4158C114.235 36.0309 112.806 37.4908 110.31 37.4908C107.815 37.4908 106.292 36.0751 106.292 33.5584V27.1977C106.292 25.6444 106.53 25.2659 107.1 24.9365V24.676H103.201V24.9365C103.746 25.2659 104.009 25.6444 104.009 27.1977V33.7009C104.009 37.2106 106.222 39.285 110.003 39.285C113.784 39.285 115.996 37.2106 115.996 33.4158V27.3157C115.996 25.6886 116.304 25.2905 116.899 24.9365V24.676H113.332V24.9365ZM127.671 38.7197C127.05 38.3658 126.768 37.9676 126.768 36.3406V26.2097H128.529C130.786 26.2097 131.218 26.539 131.809 27.2714L132.071 27.2026L131.645 24.4941C130.786 24.5875 129.67 24.6809 128.266 24.6809H122.962C121.558 24.6809 120.442 24.6121 119.583 24.4941L119.157 27.2026L119.42 27.2714C120.015 26.539 120.442 26.2097 122.699 26.2097H124.461V36.3406C124.461 37.9676 124.173 38.3658 123.558 38.7197V38.9802H127.671V38.7197ZM138.417 24.9365V24.676H134.517V24.9365C135.063 25.2659 135.326 25.6444 135.326 27.1977V36.434C135.326 37.9873 135.088 38.3658 134.517 38.6951V38.9556H138.417V38.6951C137.871 38.3658 137.608 37.9873 137.608 36.434V32.4524H145.909V36.434C145.909 37.9873 145.671 38.3658 145.1 38.6951V38.9556H149V38.6951C148.454 38.3658 148.191 37.9873 148.191 36.434V27.1977C148.191 25.6444 148.429 25.2659 149 24.9365V24.676H145.1V24.9365C145.646 25.2659 145.909 25.6444 145.909 27.1977V30.8745H137.608V27.1977C137.608 25.6444 137.871 25.2659 138.417 24.9365Z" fill="white"/>
</svg>
