<svg width="271" height="69" viewBox="0 0 271 69" fill="none" xmlns="http://www.w3.org/2000/svg">
<g clip-path="url(#clip0_2499_12220)">
<path d="M35.7186 53.4652H43.2027V13.4492H35.7186V53.4652ZM66.2606 39.5786C66.2606 34.344 62.8862 31.6619 59.2091 31.6619C55.5319 31.6619 52.1576 34.3008 52.1576 39.5786C52.1576 44.8564 55.5319 47.4952 59.2091 47.4952C62.8862 47.452 66.2606 44.8131 66.2606 39.5786ZM73.7446 39.5786C73.7446 48.1009 67.4718 54.2871 59.2091 54.2871C50.9463 54.2871 44.6736 48.1009 44.6736 39.5786C44.6736 31.0562 50.9463 24.87 59.2091 24.87C67.4718 24.87 73.7446 31.013 73.7446 39.5786ZM81.9209 39.5786C81.9209 44.5968 85.2087 47.4087 89.0156 47.4087C92.8225 47.4087 94.7692 44.8563 95.3749 42.7366L101.994 44.9429C100.739 49.5717 96.4131 54.2871 89.0156 54.2871C80.8393 54.2871 74.3935 48.1009 74.3935 39.5786C74.3935 31.0562 80.7096 24.87 88.7993 24.87C96.3699 24.87 100.653 29.5421 101.821 34.2143L95.1153 36.4638C94.4231 34.171 92.6927 31.7917 88.9723 31.7917C85.1221 31.7917 81.9209 34.5603 81.9209 39.5786ZM118.779 37.3723L130.113 53.4652H120.899L113.544 42.8664L110.43 46.1542V53.4652H102.945V13.4492H110.43V36.0312L120.033 25.6919H129.853M152.479 25.6919L158.449 43.5585L163.597 25.6919H171.038L162.342 53.4652H154.858L148.369 34.5171L142.01 53.4652H134.396L125.527 25.6919H133.444L138.592 43.5153L144.649 25.6919M191.067 39.5786C191.067 34.344 187.693 31.6619 184.016 31.6619C180.339 31.6619 176.964 34.3008 176.964 39.5786C176.964 44.8564 180.339 47.4952 184.016 47.4952C187.693 47.4952 191.067 44.8131 191.067 39.5786ZM198.594 39.5786C198.594 48.1009 192.322 54.2871 184.059 54.2871C175.796 54.2871 169.523 48.1009 169.523 39.5786C169.523 31.0562 175.796 24.87 184.059 24.87C192.322 24.8267 198.594 31.013 198.594 39.5786ZM216.894 33.1328C216.028 32.9597 215.293 32.9164 214.644 32.9164C210.794 32.9164 207.463 34.7767 207.463 40.7466V53.4219H199.979V25.6487H207.247V29.7584C208.934 26.0813 212.784 25.4324 215.163 25.4324C215.769 25.4324 216.331 25.4756 216.894 25.5622M233.895 37.3723L245.229 53.4652H236.015L228.704 42.8664L225.589 46.1542V53.4652H218.105V13.4492H225.589V36.0312L235.193 25.6919H245.013M249.642 44.294C249.815 46.5003 251.459 48.5335 254.703 48.5335C257.169 48.5335 258.38 47.2357 258.38 45.7648C258.38 44.5103 257.515 43.5153 255.396 43.0394L251.718 42.1742C246.354 41.0062 243.931 37.7616 243.931 33.8682C243.931 28.8932 248.344 24.7835 254.314 24.7835C262.231 24.7835 264.87 29.8017 265.216 32.7867L258.943 34.2143C258.727 32.5704 257.515 30.4939 254.357 30.4939C252.367 30.4939 250.81 31.6619 250.81 33.2625C250.81 34.6036 251.805 35.4688 253.362 35.7284L257.299 36.5936C262.793 37.7184 265.518 41.0494 265.518 45.1159C265.518 49.615 262.014 54.2439 254.747 54.2439C246.397 54.2439 243.542 48.8363 243.196 45.6783" fill="white"/>
<path opacity="0.2" d="M5.99963 43.4673H15.9928V33.4741H5.99963V43.4673Z" fill="white"/>
<path opacity="0.1" d="M5.99963 53.459H15.9928V43.4658H5.99963V53.459Z" fill="white"/>
<path opacity="0.6" d="M5.99963 23.4854H15.9928V13.4922H5.99963V23.4854Z" fill="white"/>
<path opacity="0.4" d="M5.99963 33.4756H15.9928V23.4824H5.99963V33.4756Z" fill="white"/>
<path opacity="0.8" d="M24.4712 13.5357C24.1684 13.4925 23.8223 13.4492 23.5195 13.4492H15.9922V23.4857H25.9854V13.9683C25.5095 13.752 24.9904 13.6223 24.4712 13.5357Z" fill="white"/>
<path d="M32.7348 23.4949V23.4516C32.7348 19.0823 29.9229 15.3186 25.9861 13.9775V23.4949" fill="white"/>
<path opacity="0.8" d="M32.7348 23.4824H25.9861V32.9132C29.8796 31.5289 32.6915 27.8517 32.7348 23.4824Z" fill="white"/>
<path opacity="0.6" d="M15.9922 23.4824V33.4756L22.6976 33.4323C24.1252 33.4323 24.9471 33.2593 25.9854 32.9132V23.4824" fill="white"/>
<path opacity="0.4" d="M24.7308 33.4744C24.428 33.4312 24.1252 33.4312 23.8223 33.4312C23.5195 33.4312 15.9922 33.4744 15.9922 33.4744V43.4676H25.9854V33.6475C25.5528 33.5609 25.1634 33.5177 24.7308 33.4744Z" fill="white"/>
<path opacity="0.6" d="M25.9861 33.6426V43.4627H33.8596C33.8596 38.6608 30.4852 34.6376 25.9861 33.6426Z" fill="white"/>
<path opacity="0.2" d="M15.9922 43.4658V53.459H24.7308C25.1634 53.4157 25.596 53.3725 25.9854 53.2427V43.4658" fill="white"/>
<path opacity="0.4" d="M25.9861 53.243C30.4852 52.248 33.8596 48.2248 33.8596 43.4229H25.9861" fill="white"/>
<path d="M32.7348 23.4949V23.4516C32.7348 19.0823 29.9229 15.3186 25.9861 13.9775V23.4949" fill="white"/>
</g>
<defs>
<clipPath id="clip0_2499_12220">
<rect width="259.52" height="40.8379" fill="white" transform="translate(6 13.4409)"/>
</clipPath>
</defs>
</svg>
