<svg width="109" height="46" viewBox="0 0 109 46" fill="none" xmlns="http://www.w3.org/2000/svg">
<g clip-path="url(#clip0_2296_14285)">
<path d="M3.89045 21.3663C4.18803 20.8849 4.61689 20.4911 5.17704 20.1935C5.73719 19.8959 6.37611 19.7471 7.09381 19.7471C7.95154 19.7471 8.7305 19.9659 9.42193 20.4035C10.1134 20.8412 10.6648 21.4626 11.0586 22.2678C11.47 23.073 11.6713 24.0095 11.6713 25.0861C11.6713 26.1626 11.47 27.0991 11.0586 27.9218C10.6648 28.727 10.1134 29.3572 9.42193 29.8036C8.7305 30.2412 7.95154 30.46 7.09381 30.46C6.35861 30.46 5.71969 30.32 5.17704 30.0311C4.6344 29.7336 4.20553 29.3397 3.89045 28.8583V30.3112H0.70459V16.5H3.89045V21.3663ZM8.44167 25.0686C8.44167 24.2721 8.21411 23.6507 7.76774 23.2043C7.33012 22.7404 6.79623 22.5129 6.14855 22.5129C5.50088 22.5129 4.97574 22.7404 4.52937 23.2043C4.09175 23.6682 3.87294 24.2896 3.87294 25.0861C3.87294 25.8825 4.09175 26.5127 4.52937 26.9678C4.97574 27.4317 5.51838 27.6593 6.14855 27.6593C6.77872 27.6593 7.32137 27.4317 7.76774 26.9678C8.21411 26.4952 8.44167 25.865 8.44167 25.0686ZM16.7301 16.5V30.2937H13.5443V16.5H16.7301ZM23.9508 30.4425C22.9356 30.4425 22.0166 30.2237 21.1938 29.7861C20.3886 29.3485 19.7497 28.727 19.2771 27.9218C18.8132 27.1166 18.5856 26.1714 18.5856 25.0861C18.5856 24.0008 18.822 23.0818 19.2946 22.2678C19.7672 21.4451 20.4149 20.8237 21.2289 20.386C22.0516 19.9484 22.9706 19.7296 23.9858 19.7296C25.0011 19.7296 25.9201 19.9484 26.7428 20.386C27.5656 20.8237 28.2045 21.4451 28.6771 22.2678C29.1497 23.073 29.3861 24.0095 29.3861 25.0861C29.3861 26.1626 29.141 27.0991 28.6596 27.9218C28.187 28.727 27.5393 29.3485 26.6991 29.7861C25.8764 30.2237 24.9574 30.4425 23.9421 30.4425H23.9508ZM23.9508 27.6855C24.5635 27.6855 25.0711 27.4579 25.5 27.0116C25.9376 26.5652 26.1564 25.9263 26.1564 25.0948C26.1564 24.2633 25.9464 23.6244 25.5263 23.178C25.1149 22.7317 24.6073 22.5041 23.9946 22.5041C23.3819 22.5041 22.8568 22.7317 22.4454 23.178C22.0341 23.6157 21.8328 24.2546 21.8328 25.0948C21.8328 25.935 22.0341 26.5652 22.4279 27.0116C22.8393 27.4579 23.3469 27.6855 23.9596 27.6855H23.9508ZM30.6376 25.0948C30.6376 24.0183 30.8564 23.073 31.2941 22.259C31.7404 21.4538 32.3531 20.8324 33.1408 20.3948C33.9373 19.9572 34.8388 19.7384 35.8628 19.7384C37.1669 19.7384 38.2522 20.0797 39.1274 20.7624C40.0114 21.4451 40.5891 22.4078 40.8604 23.6507H37.4645C37.1756 22.8542 36.6242 22.4604 35.8015 22.4604C35.2151 22.4604 34.7512 22.6879 34.4011 23.1518C34.0511 23.5982 33.876 24.2458 33.876 25.0861C33.876 25.9263 34.0511 26.5827 34.4011 27.0466C34.7512 27.493 35.2151 27.7205 35.8015 27.7205C36.6242 27.7205 37.1756 27.3267 37.4645 26.5302H40.8604C40.5891 27.7468 40.0114 28.7008 39.1274 29.401C38.2434 30.0924 37.1581 30.4425 35.8628 30.4425C34.8475 30.4425 33.9373 30.2237 33.1408 29.7861C32.3619 29.3485 31.7404 28.727 31.2941 27.9218C30.8564 27.1166 30.6376 26.1714 30.6376 25.0861V25.0948ZM56.0107 19.7821C57.3061 19.7821 58.3301 20.176 59.0828 20.9549C59.853 21.7339 60.2381 22.828 60.2381 24.2196V30.2937H57.0697V24.6484C57.0697 23.9745 56.8859 23.4581 56.5271 23.0993C56.177 22.7229 55.6956 22.5391 55.0742 22.5391C54.4528 22.5391 53.9627 22.7229 53.6038 23.0993C53.2537 23.4581 53.0787 23.9745 53.0787 24.6484V30.2937H49.9103V24.6484C49.9103 23.9745 49.7265 23.4581 49.3677 23.0993C49.0176 22.7229 48.5362 22.5391 47.9148 22.5391C47.2934 22.5391 46.8032 22.7229 46.4444 23.0993C46.0943 23.4581 45.9192 23.9745 45.9192 24.6484V30.2937H42.7334V19.8959H45.9192V21.2C46.2431 20.7624 46.6632 20.4211 47.1883 20.176C47.7135 19.9134 48.2999 19.7821 48.9563 19.7821C49.7353 19.7821 50.4355 19.9484 51.0394 20.281C51.6608 20.6136 52.1422 21.095 52.4923 21.7164C52.8511 21.1475 53.3412 20.6749 53.9627 20.316C54.5841 19.9572 55.258 19.7734 55.9932 19.7734L56.0107 19.7821ZM62.0236 25.0686C62.0236 24.0008 62.2249 23.0643 62.6187 22.2503C63.0301 21.4451 63.5815 20.8237 64.2729 20.386C64.9644 19.9484 65.7433 19.7296 66.6011 19.7296C67.3363 19.7296 67.9752 19.8784 68.5178 20.176C69.078 20.4736 69.5068 20.8674 69.8044 21.3488V19.8784H72.9903V30.2762H69.8044V28.8058C69.4981 29.2872 69.0605 29.681 68.5003 29.9786C67.9577 30.2762 67.31 30.425 66.5835 30.425C65.7346 30.425 64.9644 30.2062 64.2729 29.7686C63.5815 29.3222 63.0213 28.692 62.6187 27.8868C62.2249 27.0641 62.0236 26.1188 62.0236 25.051V25.0686ZM69.8132 25.0948C69.8132 24.2983 69.5856 23.6682 69.1392 23.2131C68.7016 22.7492 68.1677 22.5216 67.5376 22.5216C66.9074 22.5216 66.3647 22.7492 65.9184 23.2131C65.4808 23.6594 65.2619 24.2808 65.2619 25.0773C65.2619 25.8738 65.4808 26.5039 65.9184 26.9766C66.3647 27.4404 66.9074 27.668 67.5376 27.668C68.1677 27.668 68.7016 27.4404 69.1392 26.9766C69.5856 26.5127 69.8132 25.8913 69.8132 25.0948ZM81.2875 27.5892V30.2937H79.6683C78.513 30.2937 77.6115 30.0136 76.9638 29.4535C76.3162 28.8846 75.9923 27.9568 75.9923 26.679V22.5391H74.7232V19.8959H75.9923V17.3577H79.1782V19.8959H81.2612V22.5391H79.1782V26.714C79.1782 27.0203 79.257 27.2479 79.4057 27.3879C79.5545 27.528 79.7996 27.5892 80.1497 27.5892H81.2875ZM93.0507 24.9198C93.0507 25.2173 93.0332 25.5324 92.9982 25.8475H85.7862C85.8387 26.4952 86.04 26.9941 86.3989 27.3354C86.7752 27.668 87.2216 27.8343 87.7555 27.8343C88.552 27.8343 89.1034 27.5017 89.4184 26.8278H92.8144C92.6393 27.5105 92.3242 28.1231 91.8604 28.6745C91.414 29.2172 90.8451 29.646 90.1624 29.9611C89.4797 30.2675 88.7183 30.425 87.8693 30.425C86.854 30.425 85.9438 30.2062 85.1473 29.7686C84.3508 29.3309 83.7294 28.7095 83.283 27.9043C82.8367 27.0991 82.6091 26.1538 82.6091 25.0686C82.6091 23.9833 82.8279 23.0468 83.2655 22.2328C83.7119 21.4276 84.3333 20.8062 85.1298 20.3685C85.9263 19.9309 86.8365 19.7121 87.8693 19.7121C88.902 19.7121 89.7685 19.9222 90.5563 20.3423C91.344 20.7624 91.9479 21.3663 92.3855 22.154C92.8319 22.933 93.0594 23.852 93.0594 24.8935L93.0507 24.9198ZM89.786 24.0883C89.786 23.5456 89.6022 23.108 89.2259 22.7842C88.8495 22.4604 88.3857 22.3028 87.8255 22.3028C87.2654 22.3028 86.8365 22.4604 86.4689 22.7667C86.1101 23.073 85.8825 23.5194 85.795 24.0883H89.786ZM99.1511 30.4425C98.2408 30.4425 97.4356 30.285 96.7267 29.9786C96.0177 29.6723 95.4576 29.2434 95.0462 28.7095C94.6348 28.1669 94.4073 27.5542 94.3548 26.8803H97.5056C97.5406 27.2391 97.7069 27.5367 98.0045 27.7555C98.3021 27.9831 98.6697 28.0881 99.1073 28.0881C99.5012 28.0881 99.8075 28.0093 100.018 27.8606C100.245 27.703 100.35 27.493 100.35 27.2479C100.35 26.9503 100.193 26.7315 99.8863 26.5915C99.5712 26.4427 99.0723 26.2851 98.3809 26.1101C97.6369 25.935 97.0155 25.76 96.5166 25.5674C96.0177 25.3661 95.5889 25.0686 95.23 24.6572C94.8712 24.2371 94.6874 23.6682 94.6874 22.9592C94.6874 22.3641 94.8449 21.8214 95.1687 21.3401C95.5013 20.8412 95.9915 20.4561 96.6216 20.1672C97.2693 19.8784 98.0308 19.7384 98.9147 19.7384C100.219 19.7384 101.243 20.0622 101.987 20.7099C102.748 21.3576 103.177 22.2153 103.291 23.2831H100.35C100.298 22.9242 100.14 22.6354 99.8688 22.4253C99.6062 22.2153 99.2561 22.1103 98.8272 22.1103C98.4509 22.1103 98.1708 22.189 97.9695 22.3378C97.7682 22.4779 97.6719 22.6704 97.6719 22.9155C97.6719 23.2131 97.8295 23.4406 98.1358 23.5894C98.4596 23.7382 98.9585 23.887 99.6237 24.0358C100.394 24.2371 101.024 24.4296 101.505 24.6309C101.987 24.8147 102.416 25.1298 102.775 25.5587C103.151 25.9788 103.343 26.5565 103.352 27.2741C103.352 27.8868 103.177 28.4295 102.827 28.9108C102.494 29.3835 102.004 29.7598 101.357 30.0311C100.726 30.3025 99.9825 30.4425 99.1423 30.4425H99.1511Z" fill="white"/>
<path d="M107.212 30.2235C108.024 30.2235 108.682 29.5652 108.682 28.7531C108.682 27.941 108.024 27.2827 107.212 27.2827C106.4 27.2827 105.742 27.941 105.742 28.7531C105.742 29.5652 106.4 30.2235 107.212 30.2235Z" fill="white"/>
</g>
<defs>
<clipPath id="clip0_2296_14285">
<rect width="107.978" height="13.9425" fill="white" transform="translate(0.70459 16.5)"/>
</clipPath>
</defs>
</svg>
